 <svg  version="1.0" xmlns="http://www.w3.org/2000/svg"  width="300.000000pt" height="301.000000pt" viewBox="0 0 300.000000 301.000000"  preserveAspectRatio="xMidYMid meet">  <g transform="translate(0.000000,301.000000) scale(0.100000,-0.100000)" fill="#f2f2f2" stroke="none"> <path d="M13 3003 c9 -2 23 -2 30 0 6 3 -1 5 -18 5 -17 0 -22 -2 -12 -5z"/> <path d="M103 3003 c19 -5 22 -47 11 -188 l-7 -80 -53 3 c-50 4 -54 2 -54 -18 0 -20 1 -20 16 -5 10 9 30 15 51 13 49 -3 53 -18 4 -16 -23 1 -44 -2 -48 -5 -3 -4 30 -7 75 -7 45 0 82 -4 82 -9 0 -13 -38 -21 -115 -22 l-70 -2 60 -6 c50 -6 94 -6 138 -2 17 2 6 43 -13 48 -19 5 -20 14 -20 156 0 83 -3 148 -6 145 -3 -4 -6 -40 -6 -82 0 -42 -4 -76 -8 -76 -4 0 -7 21 -7 48 -1 111 -1 112 -25 111 -17 -1 -19 -2 -5 -6z m32 -172 c-3 -5 -1 -12 5 -16 15 -9 13 -108 -2 -102 -19 6 -21 127 -2 127 3 0 3 -4 -1 -9z"/> <path d="M132 2775 c0 -16 2 -22 5 -12 2 9 2 23 0 30 -3 6 -5 -1 -5 -18z"/> <path d="M281 2943 c-1 -45 -5 -73 -12 -73 -6 0 -5 -5 3 -12 8 -8 44 -13 93 -14 44 -1 132 -6 195 -11 63 -5 122 -6 130 -2 8 5 11 9 5 9 -5 0 -62 3 -125 5 -63 2 -116 8 -118 13 -1 5 -27 7 -57 4 -86 -7 -101 0 -103 48 -2 31 2 40 15 40 15 0 15 1 1 13 -9 6 -18 21 -21 32 -3 11 -5 -13 -6 -52z"/> <path d="M435 2964 c55 -49 136 -84 193 -83 31 0 27 3 -27 15 -83 18 -157 62 -154 92 2 12 -2 22 -7 22 -6 0 -10 -5 -10 -12 0 -9 -3 -9 -12 0 -7 7 -17 12 -22 12 -6 -1 11 -21 39 -46z"/> <path d="M525 3000 c-4 -6 -15 -8 -24 -5 -22 7 -51 -3 -51 -17 0 -6 6 -5 15 2 12 10 18 10 31 0 13 -11 19 -10 37 8 12 12 16 22 10 22 -7 0 -15 -5 -18 -10z"/> <path d="M2010 2979 c-139 -48 -240 -91 -240 -101 0 -12 105 -168 160 -237 l43 -54 13 24 c7 13 19 40 25 59 7 19 48 102 91 183 44 82 78 150 75 153 -6 6 -58 -90 -140 -258 -34 -70 -66 -126 -71 -124 -21 6 -176 234 -170 250 3 9 10 13 15 10 5 -3 9 0 9 6 0 7 7 10 15 6 8 -3 15 -1 15 5 0 6 7 9 15 5 8 -3 15 0 15 7 0 8 4 6 10 -3 8 -13 10 -13 10 1 0 20 27 33 34 16 2 -7 5 -4 5 5 1 11 6 15 16 12 8 -4 15 -1 15 6 0 7 8 10 20 7 11 -3 20 -1 20 5 0 5 4 7 9 4 5 -4 11 -1 13 5 2 7 18 12 36 13 18 0 32 5 32 9 0 5 5 5 10 2 6 -3 10 -1 10 4 0 16 -16 13 -110 -20z"/> <path d="M2472 2985 c0 -16 2 -22 5 -12 2 9 2 23 0 30 -3 6 -5 -1 -5 -18z"/> <path d="M2694 2868 c2 -133 0 -148 -15 -148 -12 0 -15 -6 -11 -25 l4 -25 127 0 c69 0 144 -2 166 -5 34 -4 35 -3 10 4 l-30 8 30 4 c17 3 -44 4 -135 3 l-165 -2 165 12 c137 11 151 13 83 14 -45 1 -85 7 -88 12 -3 6 -26 10 -51 10 l-44 0 -1 83 c-1 93 -14 215 -19 177 -2 -14 -3 -31 -3 -39 2 -24 -15 3 -20 34 -3 17 -4 -36 -3 -117z m20 30 c-4 -14 -2 -18 5 -14 8 5 11 -8 10 -41 -1 -26 -1 -67 0 -89 l1 -42 48 4 47 3 -40 -9 c-47 -10 -122 -12 -90 -2 15 5 20 16 21 45 0 20 -2 37 -5 37 -3 0 -7 31 -7 70 -1 40 2 67 8 64 5 -3 6 -15 2 -26z"/> <path d="M2847 3003 c-10 -9 -9 -73 1 -73 4 0 8 18 9 40 3 41 1 45 -10 33z"/> <path d="M1307 2980 c-27 -22 -77 -116 -77 -147 0 -27 68 -93 96 -93 24 0 64 31 64 50 0 6 15 10 34 10 29 0 34 -4 39 -29 7 -34 39 -55 70 -47 12 4 37 19 56 35 31 27 34 35 39 100 5 76 -8 125 -36 136 -17 6 -47 -23 -36 -34 4 -3 9 0 11 7 9 24 32 11 43 -24 14 -41 8 -140 -9 -157 -8 -8 -11 -5 -11 10 0 24 -34 53 -61 53 -9 0 -27 -8 -40 -19 -34 -26 -88 -21 -122 13 -33 33 -57 33 -96 0 -38 -31 -39 -19 -6 50 28 59 65 99 72 78 6 -15 23 -6 23 14 0 20 -23 17 -53 -6z m58 -154 c24 -36 5 -66 -40 -66 -28 0 -37 6 -49 28 -13 26 -13 31 2 45 25 25 69 21 87 -7z m210 -16 c18 -57 -72 -99 -97 -45 -9 21 -8 28 7 45 25 28 81 27 90 0z"/> <path d="M1286 2785 c4 -8 11 -15 16 -15 6 0 5 6 -2 15 -7 8 -14 15 -16 15 -2 0 -1 -7 2 -15z"/> <path d="M1490 2772 c0 -12 19 -26 26 -19 2 2 -2 10 -11 17 -9 8 -15 8 -15 2z"/> <path d="M2432 2980 c0 -14 2 -19 5 -12 2 6 2 18 0 25 -3 6 -5 1 -5 -13z"/> <path d="M2881 2988 c1 -7 4 -24 8 -37 l6 -23 14 26 c18 34 31 33 31 -1 0 -20 3 -24 9 -14 7 10 10 10 13 1 2 -7 4 3 4 23 0 20 -3 32 -7 26 -5 -8 -8 -8 -13 0 -11 18 -26 13 -36 -11 l-9 -23 0 23 c-1 12 -5 22 -11 22 -5 0 -10 -6 -9 -12z"/> <path d="M375 2970 c-4 -6 -16 -10 -28 -10 -16 0 -18 -3 -9 -9 11 -7 11 -9 -2 -14 -9 -4 -16 -11 -16 -18 0 -6 14 1 31 15 33 28 44 31 54 16 8 -12 25 -13 25 -2 0 14 -48 33 -55 22z"/> <path d="M2531 2971 c-7 -5 -10 -14 -7 -20 8 -13 -37 -61 -57 -61 -20 0 -68 40 -62 51 7 10 -8 12 -18 2 -4 -3 2 -16 13 -28 17 -18 18 -25 8 -53 -7 -17 -9 -34 -5 -38 11 -11 57 14 57 31 0 8 13 21 29 30 17 8 33 20 36 25 7 11 25 70 22 70 -1 0 -8 -4 -16 -9z m-81 -105 c0 -17 -27 -40 -33 -29 -8 13 12 55 23 48 5 -3 10 -12 10 -19z"/> <path d="M2431 2864 c0 -11 3 -14 6 -6 3 7 2 16 -1 19 -3 4 -6 -2 -5 -13z"/> <path d="M1965 2917 c-66 -28 -122 -52 -124 -53 -7 -5 103 -164 114 -163 5 0 40 61 77 135 36 74 63 134 60 133 -4 -1 -61 -24 -127 -52z m48 -84 c-31 -60 -57 -109 -59 -111 -1 -2 -23 26 -49 63 -26 36 -45 68 -42 71 6 7 189 83 199 84 3 0 -19 -48 -49 -107z"/> <path d="M2860 2956 c0 -8 5 -18 10 -21 6 -3 10 3 10 14 0 12 -4 21 -10 21 -5 0 -10 -6 -10 -14z"/> <path d="M980 2920 c-7 -16 -10 -41 -7 -56 3 -20 -1 -27 -18 -34 -51 -20 -72 -70 -50 -122 5 -13 -2 -19 -34 -28 -45 -12 -66 -39 -57 -75 5 -19 2 -24 -16 -27 -22 -3 -69 -68 -49 -68 6 0 11 6 11 13 0 19 30 44 63 52 26 7 31 15 28 42 -1 6 8 15 20 18 14 5 18 10 11 17 -15 15 -30 2 -41 -35 l-9 -32 -1 31 c-1 43 22 61 55 43 22 -11 23 -15 10 -25 -9 -6 -13 -14 -9 -18 4 -4 0 -4 -8 -1 -10 4 -16 0 -16 -10 0 -21 13 -19 38 6 21 21 22 50 4 134 -4 23 -2 21 11 -10 38 -94 28 -125 -45 -152 -27 -9 -47 -21 -45 -25 3 -4 -1 -5 -9 -3 -14 6 -40 -18 -49 -45 -5 -12 2 -15 35 -11 38 3 40 2 35 -23 -7 -34 0 -33 13 1 6 17 6 36 0 54 -9 26 -7 28 29 43 40 16 70 49 70 77 0 9 11 20 24 23 14 3 34 20 47 37 17 24 20 38 15 70 -6 36 -3 44 24 69 16 15 30 36 30 47 0 14 -3 13 -13 -7 -14 -28 -73 -70 -96 -69 -9 0 -4 6 12 13 15 7 24 16 20 20 -4 4 0 4 9 1 10 -4 22 2 32 17 23 32 20 48 -9 48 -14 0 -25 6 -25 13 0 8 -4 7 -10 -3 -5 -8 -10 -30 -10 -47 0 -18 -4 -33 -10 -33 -13 0 -13 31 0 66 15 37 6 42 -10 4z m73 -17 c-7 -2 -21 -2 -30 0 -10 3 -4 5 12 5 17 0 24 -2 18 -5z m-8 -23 c-3 -5 -13 -10 -21 -10 -8 0 -14 5 -14 10 0 6 9 10 21 10 11 0 17 -4 14 -10z m-65 -70 c13 -8 13 -10 -2 -10 -9 0 -20 5 -23 10 -8 13 5 13 25 0z m44 -25 c4 -19 3 -43 -3 -52 -16 -31 -50 -56 -66 -50 -20 8 -19 27 1 27 8 0 12 -4 9 -10 -3 -5 -2 -10 4 -10 26 0 18 20 -11 29 l-33 9 33 1 c19 1 32 -4 32 -11 0 -7 5 -5 11 6 6 10 9 36 6 57 -6 48 8 52 17 4z m-44 4 c20 -1 19 -3 -10 -9 l-35 -7 35 -3 35 -3 -40 -7 -40 -7 38 -2 c20 0 37 -4 37 -9 0 -4 -18 -6 -39 -4 -30 3 -41 9 -45 25 -7 26 13 52 28 37 5 -5 21 -11 36 -11z m-70 -119 c0 -5 -2 -10 -4 -10 -3 0 -8 5 -11 10 -3 6 -1 10 4 10 6 0 11 -4 11 -10z m-70 -145 c0 -10 -10 -15 -31 -15 -27 0 -30 2 -19 15 7 8 21 15 31 15 11 0 19 -7 19 -15z"/> <path d="M925 2789 c-4 -6 -5 -12 -2 -15 2 -3 7 2 10 11 7 17 1 20 -8 4z"/> <path d="M808 2523 c7 -3 16 -2 19 1 4 3 -2 6 -13 5 -11 0 -14 -3 -6 -6z"/> <path d="M2910 2940 c0 -5 5 -10 11 -10 5 0 7 5 4 10 -3 6 -8 10 -11 10 -2 0 -4 -4 -4 -10z"/> <path d="M433 2905 c0 -14 2 -25 6 -25 4 0 8 11 9 25 1 14 -2 25 -7 25 -5 0 -8 -11 -8 -25z"/> <path d="M2860 2886 c0 -8 5 -16 11 -18 5 -2 7 -11 4 -21 -4 -9 -11 -14 -16 -11 -5 3 -9 0 -9 -5 0 -14 13 -14 28 1 9 9 12 9 12 0 0 -7 4 -12 9 -12 6 0 9 12 8 26 -1 15 4 29 11 31 7 3 12 -6 13 -24 l1 -28 8 25 8 25 2 -25 c2 -24 3 -23 10 5 5 21 8 24 10 10 1 -20 1 -20 10 0 8 19 9 19 9 -2 1 -13 -3 -23 -9 -23 -5 0 -10 -5 -10 -11 0 -8 5 -8 15 1 17 14 20 56 5 65 -5 3 -10 2 -10 -2 0 -10 -41 -10 -57 0 -7 4 -16 0 -21 -9 -6 -10 -14 -14 -22 -9 -9 6 -9 9 1 16 11 7 10 9 -3 9 -10 0 -18 -6 -18 -14z"/> <path d="M677 2789 c-3 -12 1 -17 12 -16 9 0 17 8 17 17 0 22 -23 21 -29 -1z"/> <path d="M2324 2746 c-4 -10 -18 -16 -39 -16 -18 0 -35 -4 -37 -8 -1 -5 -16 -15 -33 -23 -39 -19 -56 -71 -56 -173 0 -64 4 -83 18 -96 26 -24 160 -59 208 -53 22 2 52 4 68 4 15 0 27 4 27 8 0 5 9 11 19 14 31 8 36 63 12 127 -12 30 -21 67 -21 82 0 70 -55 137 -120 145 -31 4 -41 2 -46 -11z m76 -17 c0 -10 -12 -11 -34 -3 -9 3 -14 10 -11 14 6 10 45 1 45 -11z m13 -28 c19 -18 35 -182 21 -206 -6 -11 -14 -38 -17 -60 -5 -35 -4 -38 7 -22 8 10 20 15 30 11 17 -7 22 -34 6 -34 -5 0 -9 3 -9 8 3 20 -3 20 -22 1 -29 -29 -40 -13 -28 41 17 74 15 180 -6 223 -17 37 -28 43 -95 51 -19 2 -4 2 33 1 38 -1 74 -8 80 -14z m53 -19 c4 -9 10 -51 13 -92 4 -53 10 -74 19 -72 9 1 11 -6 6 -25 -4 -22 -3 -25 5 -13 7 9 11 10 11 3 0 -6 -5 -15 -11 -19 -6 -3 -8 -17 -5 -30 7 -27 -5 -32 -24 -9 -7 8 -21 15 -31 15 -11 0 -19 7 -19 16 0 10 6 14 15 10 35 -13 62 23 31 41 -18 11 -26 63 -13 84 7 12 7 26 -1 50 l-12 34 5 -40 c3 -32 2 -36 -6 -22 -6 11 -9 31 -6 47 3 15 1 32 -6 39 -9 10 -8 11 5 6 9 -4 20 -14 24 -23z m-89 -9 c23 -34 30 -157 13 -230 -11 -52 -12 -53 -46 -53 -41 0 -156 37 -166 53 -12 18 -9 155 3 197 14 47 37 58 116 59 57 1 64 -1 80 -26z m103 -183 c0 -5 -9 -10 -21 -10 -11 0 -17 5 -14 10 3 6 13 10 21 10 8 0 14 -4 14 -10z"/> <path d="M2480 2441 c0 -6 4 -13 10 -16 6 -3 7 1 4 9 -7 18 -14 21 -14 7z"/> <path d="M2200 2641 c0 -16 6 -32 13 -34 6 -3 2 -6 -10 -6 -20 -1 -23 -6 -21 -43 l1 -43 4 38 c4 37 5 37 51 38 26 1 61 5 77 9 27 7 26 8 -15 9 -61 2 -90 11 -90 27 0 18 2 18 45 -3 33 -16 37 -16 70 0 36 17 43 11 25 -24 -6 -10 -21 -20 -33 -20 -13 -1 -8 -4 13 -8 21 -4 36 -12 38 -23 3 -15 -2 -15 -46 4 -36 15 -59 19 -86 14 -33 -6 -35 -9 -25 -28 8 -15 8 -19 0 -14 -6 4 -11 0 -11 -8 0 -9 -4 -16 -8 -16 -4 0 -7 -12 -6 -27 1 -27 3 -28 92 -42 51 -8 94 -13 96 -10 2 2 2 16 -1 31 -7 36 -53 47 -53 12 0 -17 6 -24 18 -23 10 0 12 3 5 6 -17 6 -16 23 1 23 7 0 16 -9 19 -21 5 -17 1 -20 -21 -17 -21 2 -28 9 -30 31 -2 15 -9 27 -17 27 -7 0 -21 3 -31 7 -14 5 -16 1 -12 -25 7 -47 -5 -28 -18 29 -12 55 -11 59 25 59 45 0 107 -38 119 -73 11 -29 11 -28 6 18 -3 28 -10 55 -15 61 -4 5 -6 26 -3 46 7 42 -5 48 -103 48 -63 0 -63 0 -63 -29z m136 10 c-9 -14 -46 -20 -46 -8 0 9 -2 9 -8 0 -5 -8 -13 -8 -32 2 -24 14 -22 14 33 15 32 0 56 -4 53 -9z m-106 -160 c0 -10 -8 -21 -18 -23 -15 -4 -18 -1 -14 18 5 28 32 32 32 5z m70 -16 c0 -8 -9 -15 -20 -15 -11 0 -20 7 -20 15 0 8 9 15 20 15 11 0 20 -7 20 -15z"/> <path d="M351 2724 c-9 -11 -10 -19 -3 -26 8 -8 2 -16 -21 -27 -67 -34 -97 -124 -62 -190 20 -40 72 -81 101 -81 13 0 24 -4 24 -10 0 -5 -7 -10 -15 -10 -8 0 -15 -7 -15 -15 0 -8 7 -15 15 -15 22 0 18 -13 -10 -40 -38 -36 -32 -50 20 -50 53 0 109 25 98 43 -4 7 -18 21 -31 31 l-24 19 59 27 c100 46 138 115 113 204 -20 74 -98 132 -184 138 -20 1 -36 6 -36 10 0 13 -14 9 -29 -8z m145 -39 c64 -28 96 -76 97 -144 1 -67 -30 -113 -96 -145 -55 -26 -145 -47 -117 -27 8 6 26 11 40 12 22 0 20 3 -15 19 l-40 18 57 -1 c33 0 55 -4 51 -10 -10 -16 31 11 55 36 50 53 46 139 -10 202 -27 31 -58 49 -44 26 4 -5 -11 -4 -31 2 -28 9 -37 9 -41 -1 -2 -7 -18 -12 -35 -11 l-32 1 28 10 c29 10 37 28 12 28 -8 0 -15 4 -15 9 0 15 81 1 136 -24z m-8 -48 c23 -22 31 -11 10 13 -11 12 -10 12 5 0 26 -19 47 -64 46 -97 -1 -25 -2 -24 -8 7 -11 54 -17 60 -54 49 -17 -5 -37 -9 -43 -9 -17 0 -24 36 -10 50 8 10 6 10 -11 1 -28 -14 -19 -46 17 -64 14 -7 27 -21 29 -32 2 -11 14 -33 28 -49 19 -22 21 -31 12 -42 -7 -8 -9 -17 -6 -20 3 -3 10 3 16 14 11 20 6 52 -8 52 -4 0 -13 12 -20 26 -10 22 -9 31 5 52 21 33 33 15 35 -53 0 -39 2 -46 10 -30 7 16 8 14 4 -10 -4 -16 -18 -41 -32 -55 -14 -14 -23 -20 -20 -14 7 12 -113 6 -127 -7 -20 -18 -112 58 -93 78 4 3 11 -6 16 -21 6 -14 15 -26 21 -26 6 0 2 14 -10 30 -15 20 -19 35 -13 43 6 8 5 21 -4 37 l-15 25 6 -25 c3 -14 1 -32 -4 -40 -7 -11 -10 -4 -10 24 0 51 34 106 65 106 13 0 27 -5 30 -10 11 -17 -6 -70 -28 -91 -19 -17 -20 -21 -7 -29 13 -9 13 -10 0 -10 -12 0 -13 -2 -1 -9 8 -5 12 -19 9 -35 -3 -15 -1 -23 5 -19 6 3 7 1 3 -5 -4 -7 -2 -12 3 -12 13 0 13 1 1 60 -6 35 -5 49 7 62 8 9 17 34 20 56 5 34 10 41 37 49 37 11 53 7 84 -20z m-11 -59 c-3 -8 -6 -5 -6 6 -1 11 2 17 5 13 3 -3 4 -12 1 -19z m-40 -270 c-5 -3 1 -8 14 -10 l24 -4 -28 -12 c-16 -7 -45 -12 -65 -11 l-37 1 33 8 c18 4 36 11 40 15 4 4 -6 5 -23 1 -28 -7 -29 -6 -14 11 9 10 19 26 23 37 6 17 7 16 25 -5 13 -16 15 -26 8 -31z"/> <path d="M420 2690 c34 -11 60 -11 35 0 -11 5 -29 8 -40 8 -16 0 -15 -2 5 -8z"/> <path d="M435 2400 c3 -5 10 -10 16 -10 5 0 9 5 9 10 0 6 -7 10 -16 10 -8 0 -12 -4 -9 -10z"/> <path d="M291 2618 c-13 -22 -13 -22 5 -7 10 10 28 19 39 22 16 4 16 5 -5 6 -16 1 -30 -7 -39 -21z"/> <path d="M430 2529 c0 -5 5 -7 10 -4 6 3 10 8 10 11 0 2 -4 4 -10 4 -5 0 -10 -5 -10 -11z"/> <path d="M390 2520 c0 -5 4 -10 9 -10 6 0 13 5 16 10 3 6 -1 10 -9 10 -9 0 -16 -4 -16 -10z"/> <path d="M38 2683 c23 -2 59 -2 80 0 20 2 1 4 -43 4 -44 0 -61 -2 -37 -4z"/> <path d="M720 2680 c0 -5 5 -10 11 -10 5 0 7 5 4 10 -3 6 -8 10 -11 10 -2 0 -4 -4 -4 -10z"/> <path d="M1773 2655 c0 -8 4 -12 9 -9 5 3 6 10 3 15 -9 13 -12 11 -12 -6z"/> <path d="M1195 2610 c3 -5 8 -10 11 -10 2 0 4 5 4 10 0 6 -5 10 -11 10 -5 0 -7 -4 -4 -10z"/> <path d="M2775 2580 c3 -5 8 -10 11 -10 2 0 4 5 4 10 0 6 -5 10 -11 10 -5 0 -7 -4 -4 -10z"/> <path d="M1244 2546 c-3 -14 -10 -23 -16 -20 -16 10 -57 -5 -68 -25 -14 -27 28 -75 78 -92 88 -29 113 -72 68 -114 -15 -14 -33 -25 -40 -25 -21 0 -38 -27 -32 -48 6 -17 21 -20 118 -26 61 -3 113 -4 116 -2 10 10 -9 56 -23 56 -8 0 -15 7 -15 16 0 9 -9 18 -20 21 -53 14 1 112 62 113 38 0 74 18 88 45 17 32 6 54 -29 61 -16 4 -31 14 -34 24 -5 18 -25 22 -174 36 -72 6 -72 6 -79 -20z m176 -4 l65 -7 -3 -30 c-5 -39 -38 -98 -65 -115 -36 -23 -98 -14 -125 18 -28 33 -45 93 -36 127 6 24 9 25 53 20 25 -4 75 -9 111 -13z m-190 -32 c12 -8 9 -10 -12 -10 -53 0 -43 -43 13 -55 27 -6 46 -21 37 -30 -2 -3 -23 5 -46 16 -48 24 -63 56 -36 76 21 15 24 16 44 3z m322 -46 c-5 -29 -23 -43 -62 -49 l-35 -5 34 13 c42 16 62 44 42 56 -8 5 -19 7 -26 5 -6 -3 -12 2 -12 10 0 13 5 13 31 2 22 -9 30 -19 28 -32z m-304 4 c3 -15 -1 -16 -19 -9 -32 11 -38 34 -8 29 13 -1 25 -11 27 -20z m280 -10 c-5 -15 -48 -24 -48 -10 0 14 12 22 33 22 10 0 17 -5 15 -12z m-148 -110 c0 -7 -3 -23 -6 -35 -8 -31 -34 -17 -34 18 0 22 5 29 20 29 11 0 20 -6 20 -12z m19 -74 c39 -8 14 -18 -37 -15 -52 3 -65 8 -57 21 5 9 30 7 94 -6z m-1 -30 c43 -6 52 -10 52 -27 0 -17 -5 -19 -31 -13 -17 3 -62 6 -100 6 -62 0 -69 2 -69 20 0 17 7 20 48 20 26 0 71 -3 100 -6z"/> <path d="M1265 2530 c-7 -12 20 -60 34 -60 5 0 11 16 13 35 3 31 1 35 -18 35 -13 0 -26 -5 -29 -10z m35 -21 c0 -11 -4 -17 -10 -14 -5 3 -10 13 -10 21 0 8 5 14 10 14 6 0 10 -9 10 -21z"/> <path d="M868 2512 c6 -62 12 -67 12 -9 0 25 -4 48 -9 51 -5 3 -6 -16 -3 -42z"/> <path d="M2824 2535 c-11 -7 -15 -17 -11 -21 11 -11 -113 -134 -135 -134 -29 0 -21 -16 18 -40 41 -23 64 -21 64 8 0 21 36 59 47 49 3 -4 0 -7 -7 -7 -10 0 -9 -5 3 -18 20 -22 23 -72 5 -73 -7 0 -55 0 -105 1 -76 1 -93 -1 -93 -13 0 -10 17 -17 58 -23 31 -4 63 -6 70 -5 6 1 12 -3 12 -9 0 -6 -4 -8 -10 -5 -5 3 -10 0 -10 -7 0 -10 -2 -10 -9 1 -6 9 -11 10 -15 2 -4 -6 -4 -15 -1 -21 4 -6 -9 -10 -32 -10 -75 0 -119 -45 -68 -68 31 -14 273 -16 294 -3 21 14 -2 61 -29 61 -28 0 -25 17 10 50 23 21 30 37 30 64 0 48 -22 98 -53 123 -25 20 -26 21 -8 37 10 9 20 13 24 10 3 -3 10 4 16 15 10 18 7 22 -18 35 -24 13 -31 13 -47 1z m53 -14 c2 0 -15 -20 -37 -43 -23 -23 -39 -47 -36 -55 3 -8 2 -11 -4 -8 -5 3 -19 -8 -31 -25 -17 -22 -26 -27 -36 -19 -10 9 -2 23 39 70 28 32 58 59 66 59 13 0 13 2 -2 13 -16 12 -15 13 11 11 15 -1 29 -2 30 -3z m-19 -103 c24 -27 42 -70 42 -103 0 -26 -44 -84 -56 -73 -3 4 -8 31 -9 60 -1 29 -6 61 -10 71 -5 12 -2 23 11 33 14 10 14 12 3 9 -10 -4 -16 0 -16 10 0 21 10 19 35 -7z m-123 -61 c29 -22 3 -26 -30 -6 -25 16 -27 19 -9 19 11 0 28 -6 39 -13z m29 -77 c-7 -7 -32 -8 -75 -2 l-64 10 75 1 c51 1 71 -2 64 -9z m56 -2 c0 -2 7 -24 15 -50 l14 -48 -55 0 c-51 0 -54 1 -44 19 5 11 10 28 10 38 0 24 19 43 42 43 10 0 18 -1 18 -2z m-76 -63 c-4 -8 -11 -12 -16 -9 -6 4 -5 10 3 15 19 12 19 11 13 -6z m-19 -25 c8 -12 -52 -12 -80 0 -15 6 -8 9 27 9 26 1 50 -3 53 -9z m25 -26 c30 -3 74 -1 97 4 32 7 43 7 47 -3 7 -19 -26 -25 -135 -25 -116 0 -159 7 -159 27 0 12 10 14 48 9 26 -3 72 -8 102 -12z"/> <path d="M1742 2458 c-19 -9 -21 -16 -16 -45 5 -25 3 -33 -9 -33 -18 0 -30 -27 -16 -36 19 -11 39 18 39 57 0 28 5 41 20 49 17 9 20 8 20 -10 0 -11 -5 -29 -12 -40 -13 -21 -6 -36 11 -25 6 3 11 26 11 51 0 47 -7 51 -48 32z"/> <path d="M2000 2380 c20 -13 33 -13 25 0 -3 6 -14 10 -23 10 -15 0 -15 -2 -2 -10z"/> <path d="M740 2366 c-110 -20 -110 -20 -110 -136 0 -54 4 -101 9 -104 5 -3 7 -14 4 -24 -3 -14 8 -27 44 -49 89 -56 160 -93 178 -93 25 0 225 68 253 87 43 27 25 52 -68 99 l-85 43 0 93 0 93 -80 2 c-44 1 -109 -4 -145 -11z m218 -25 c2 -14 1 -54 -3 -89 -8 -74 1 -69 -170 -106 -66 -14 -96 -24 -67 -21 29 3 52 2 52 -4 0 -5 8 -8 18 -6 9 1 11 0 5 -2 -20 -7 -15 -23 5 -17 9 3 2 -3 -17 -14 l-34 -19 37 -23 c36 -22 38 -22 81 -6 42 17 44 17 64 -3 22 -22 57 -29 45 -10 -4 8 1 9 16 4 15 -5 20 -4 16 4 -4 7 -1 9 7 5 8 -3 37 6 64 21 51 28 44 28 -20 0 -22 -9 -36 -11 -32 -5 3 5 -1 13 -9 16 -25 10 -19 22 14 29 16 4 32 10 35 15 3 4 -4 6 -15 3 -16 -4 -19 -2 -14 12 5 11 9 13 14 5 4 -6 10 -11 14 -11 17 2 24 -1 45 -20 17 -16 19 -24 11 -34 -13 -16 -150 -70 -200 -79 l-35 -6 35 15 c32 14 32 15 5 8 -39 -9 -75 -8 -100 1 -20 8 -20 7 -1 -8 11 -9 29 -17 40 -17 16 -1 17 -2 4 -6 -18 -5 -188 87 -209 114 -10 12 -4 11 18 -5 43 -30 47 -28 12 7 -28 29 -29 32 -29 135 0 73 4 107 13 113 22 15 141 31 212 30 66 -2 70 -3 73 -26z m-311 -163 c-2 -29 -3 -8 -3 47 0 55 1 79 3 53 2 -26 2 -71 0 -100z m337 -9 c14 -7 23 -17 19 -22 -4 -7 1 -8 13 -3 15 5 16 4 7 -5 -6 -6 -9 -17 -7 -24 6 -14 -131 -69 -147 -59 -5 3 -9 1 -9 -5 0 -19 -39 -22 -65 -5 -14 9 -23 19 -21 22 3 3 11 0 18 -5 19 -14 50 -24 44 -14 -3 5 14 14 39 20 33 8 43 15 39 26 -4 8 -1 15 5 15 6 0 11 -5 11 -11 0 -6 9 -8 21 -4 12 4 28 8 35 9 18 3 31 16 15 16 -7 0 -9 5 -6 10 3 6 1 10 -5 10 -6 0 -9 4 -6 9 3 5 -12 9 -34 9 -24 1 -38 -3 -34 -9 3 -6 -5 -7 -23 -4 -22 5 -25 4 -13 -4 12 -9 9 -10 -14 -5 -17 4 -31 2 -35 -4 -4 -7 -17 -8 -31 -5 -20 5 -7 11 60 28 47 12 88 23 92 24 4 0 18 -4 32 -10z m-25 -34 c8 0 16 -6 19 -12 2 -7 -1 -13 -8 -13 -6 0 -8 5 -5 10 3 6 1 10 -4 10 -6 0 -11 -8 -11 -17 -1 -17 -1 -17 -11 0 -8 13 -14 15 -29 7 -10 -5 -25 -10 -32 -10 -7 0 3 8 22 18 19 9 37 15 40 12 3 -3 11 -5 19 -5z m-106 -32 c-7 -3 -13 -9 -13 -14 0 -5 11 -4 26 1 32 13 34 12 34 -2 0 -6 -3 -9 -6 -5 -4 3 -22 0 -41 -8 -42 -18 -53 -19 -53 -4 0 6 7 8 16 5 11 -4 14 -1 10 12 -5 13 0 18 17 19 12 0 16 -1 10 -4z m150 -47 c3 -15 -53 -30 -66 -17 -7 7 -4 13 14 20 28 11 49 10 52 -3z"/> <path d="M757 2346 c-37 -7 -72 -17 -78 -23 -5 -5 -9 -47 -7 -94 3 -77 5 -84 23 -83 17 1 115 19 212 40 26 5 32 24 36 109 l2 60 -60 2 c-33 0 -91 -4 -128 -11z m175 -51 c-4 -76 -10 -94 -35 -99 -12 -3 -59 -12 -104 -21 -46 -8 -90 -18 -98 -21 -13 -5 -15 7 -15 79 l0 86 33 6 c17 3 52 10 77 14 25 5 68 9 95 8 l50 -2 -3 -50z"/> <path d="M710 2111 l-24 -7 24 -17 c28 -20 44 -22 34 -5 -5 8 -2 9 10 5 14 -6 17 -3 12 9 -3 8 -6 18 -6 20 0 5 -19 4 -50 -5z m30 -11 c-8 -5 -19 -10 -25 -10 -5 0 -3 5 5 10 8 5 20 10 25 10 6 0 3 -5 -5 -10z"/> <path d="M720 2055 c0 -6 76 -45 87 -45 4 0 -12 11 -36 25 -44 26 -51 28 -51 20z"/> <path d="M78 2340 c-9 -26 -12 -28 -22 -16 -7 10 -19 13 -33 10 -30 -8 -30 -22 1 -17 21 4 24 0 35 -57 8 -42 9 -66 2 -73 -15 -15 -41 0 -41 23 0 11 -5 20 -11 20 -6 0 -8 -7 -5 -16 3 -9 6 -22 6 -30 0 -16 50 -20 66 -4 9 9 53 12 132 9 38 -2 68 21 59 45 -4 9 -17 16 -31 16 -47 0 -39 34 9 35 31 0 31 33 0 45 -15 6 -31 7 -37 4 -5 -3 -16 3 -24 15 -11 15 -26 21 -55 21 -36 0 -41 -3 -51 -30z m91 2 c14 -25 -5 -52 -37 -53 l-27 -1 28 -10 c36 -13 38 -54 3 -70 -14 -6 -31 -8 -39 -5 -24 9 -30 77 -12 120 13 31 20 37 45 37 18 0 33 -7 39 -18z m83 -37 c-1 -5 -12 -10 -23 -10 -12 0 -27 -8 -33 -18 -9 -15 -7 -21 9 -33 11 -8 25 -12 32 -10 7 3 15 1 18 -3 9 -15 -23 -33 -52 -29 -23 2 -28 7 -25 27 1 13 -3 29 -8 37 -18 21 19 55 55 52 17 -2 29 -7 27 -13z"/> <path d="M116 2334 c-8 -21 -1 -28 19 -20 9 3 15 11 13 18 -7 19 -25 20 -32 2z"/> <path d="M97 2263 c-15 -14 -7 -43 12 -43 23 0 34 23 18 39 -13 13 -21 14 -30 4z m23 -23 c0 -5 -4 -10 -10 -10 -5 0 -10 5 -10 10 0 6 5 10 10 10 6 0 10 -4 10 -10z"/> <path d="M1975 2360 c3 -5 14 -10 23 -10 15 0 15 2 2 10 -20 13 -33 13 -25 0z"/> <path d="M1940 2350 c8 -6 24 -16 35 -22 20 -11 20 -11 1 11 -11 11 -26 21 -35 21 -14 0 -14 -2 -1 -10z"/> <path d="M1800 2337 c-42 -15 -80 -68 -80 -112 0 -18 10 -45 23 -61 12 -15 27 -42 32 -59 10 -29 12 -30 83 -33 44 -2 72 1 72 7 0 6 15 17 33 25 48 20 86 66 89 106 2 26 -1 35 -12 35 -8 0 -16 -9 -18 -20 -8 -52 -14 -64 -44 -85 -18 -12 -24 -19 -13 -15 16 5 18 4 8 -6 -10 -10 -16 -10 -25 -1 -10 10 -8 18 5 41 9 16 17 49 17 74 0 36 -6 51 -29 76 -16 17 -37 31 -48 31 -10 0 -27 2 -38 5 -11 2 -36 -1 -55 -8z m137 -43 c62 -78 -4 -185 -104 -169 -32 5 -35 4 -19 -6 11 -7 37 -9 67 -6 27 3 49 4 49 2 0 -27 -16 -35 -71 -35 -49 0 -60 3 -70 21 -14 26 1 39 46 39 17 0 37 5 45 11 11 8 2 9 -34 6 -90 -9 -128 24 -107 94 18 59 54 82 120 77 45 -4 58 -10 78 -34z m100 -106 c-3 -8 -6 -5 -6 6 -1 11 2 17 5 13 3 -3 4 -12 1 -19z m-7 -21 c0 -2 -10 -12 -22 -23 l-23 -19 19 23 c18 21 26 27 26 19z"/> <path d="M1793 2300 c-33 -13 -28 -16 17 -12 62 6 88 -4 104 -41 8 -18 15 -25 15 -15 3 58 -70 94 -136 68z"/> <path d="M1800 2234 c-12 -13 -11 -17 0 -24 8 -5 17 -6 20 -3 3 3 -1 8 -9 11 -11 4 -11 6 0 13 7 4 11 11 8 14 -4 3 -12 -2 -19 -11z"/> <path d="M1830 2224 c0 -8 5 -12 10 -9 6 3 10 10 10 16 0 5 -4 9 -10 9 -5 0 -10 -7 -10 -16z"/> <path d="M0 2281 c0 -6 5 -11 10 -11 6 0 10 -5 10 -11 0 -5 -4 -7 -10 -4 -5 3 -10 1 -10 -5 0 -7 6 -10 12 -7 17 5 17 39 1 45 -7 2 -13 -1 -13 -7z"/> <path d="M2300 2265 c0 -8 -7 -15 -15 -15 -9 0 -14 -9 -13 -22 1 -13 -16 -63 -37 -113 -44 -104 -66 -171 -58 -178 13 -13 47 43 84 139 23 58 39 107 37 110 -3 2 -24 -45 -48 -106 -24 -60 -47 -110 -52 -110 -5 0 -8 3 -6 8 2 4 23 58 48 120 43 107 64 139 67 103 1 -9 5 -55 9 -103 6 -74 10 -88 24 -88 14 0 19 -11 22 -52 7 -67 4 -75 -43 -98 -56 -29 -152 -27 -212 4 -26 13 -47 19 -47 14 0 -20 92 -50 158 -51 54 -1 75 3 109 22 49 28 54 37 63 111 4 30 8 60 10 65 1 6 2 34 1 63 -1 39 -5 52 -16 52 -9 0 -15 -9 -15 -22 0 -13 -4 -29 -9 -36 -5 -8 -10 15 -14 60 -4 42 -2 75 3 78 15 9 -12 60 -32 60 -10 0 -18 -7 -18 -15z m30 -5 c0 -5 -4 -10 -10 -10 -5 0 -10 5 -10 10 0 6 5 10 10 10 6 0 10 -4 10 -10z m10 -30 c0 -6 -11 -8 -27 -4 -40 10 -41 14 -5 14 18 0 32 -5 32 -10z m-1 -117 c1 -55 9 -73 32 -73 10 0 19 -5 19 -11 0 -7 -10 -9 -27 -4 -16 4 -28 7 -29 8 -1 1 -4 43 -7 92 -3 50 -1 77 3 60 4 -16 8 -49 9 -72z m47 -61 c-12 -11 -15 5 -8 44 l7 39 3 -39 c2 -21 1 -41 -2 -44z m-9 -94 c-2 -13 -4 -5 -4 17 -1 22 1 32 4 23 2 -10 2 -28 0 -40z"/> <path d="M1666 2255 c-3 -9 -5 -35 -5 -58 2 -40 2 -39 9 13 7 59 6 71 -4 45z"/> <path d="M1684 2234 c-4 -14 -2 -35 4 -47 8 -18 10 -14 10 26 0 52 -4 60 -14 21z"/> <path d="M1631 2224 c0 -11 3 -14 6 -6 3 7 2 16 -1 19 -3 4 -6 -2 -5 -13z"/> <path d="M290 2121 c0 -6 -24 -11 -52 -13 l-53 -3 -17 -115 c-9 -63 -17 -132 -17 -152 l-1 -38 104 0 c57 0 117 -3 134 -6 27 -5 32 -3 36 17 3 13 16 81 29 151 25 137 25 138 -29 138 -15 0 -24 6 -24 15 0 12 -13 15 -55 15 -30 0 -55 -4 -55 -9z m94 -9 c2 -4 1 -14 -3 -21 -11 -17 -81 -4 -81 15 0 15 75 21 84 6z m-88 -27 c34 -17 94 -20 94 -4 0 11 56 6 68 -5 3 -4 -22 -145 -44 -244 -5 -24 -6 -24 -129 -20 -90 2 -125 6 -125 15 0 20 31 237 36 256 7 22 60 23 100 2z"/> <path d="M207 2065 c-5 -10 0 -15 14 -15 12 0 19 5 17 12 -6 18 -25 20 -31 3z"/> <path d="M261 2056 c7 -7 139 -10 146 -3 3 4 -29 7 -72 7 -43 0 -76 -2 -74 -4z"/> <path d="M261 2036 c2 -2 38 -6 79 -9 46 -4 67 -3 55 3 -19 8 -143 14 -134 6z"/> <path d="M200 2020 c0 -5 7 -10 15 -10 8 0 15 5 15 10 0 6 -7 10 -15 10 -8 0 -15 -4 -15 -10z"/> <path d="M252 2008 c4 -20 27 -27 88 -26 l55 1 -58 7 c-81 10 -82 19 0 13 90 -7 78 2 -15 11 -57 6 -72 5 -70 -6z"/> <path d="M200 1974 c0 -17 22 -14 28 4 2 7 -3 12 -12 12 -9 0 -16 -7 -16 -16z"/> <path d="M241 1966 c2 -2 38 -6 79 -9 46 -4 67 -3 55 3 -19 8 -143 14 -134 6z"/> <path d="M190 1934 c0 -9 7 -14 17 -12 25 5 28 28 4 28 -12 0 -21 -6 -21 -16z"/> <path d="M270 1930 l35 -7 -34 -2 c-44 -1 -37 -7 18 -14 29 -4 40 -2 30 4 -10 6 0 9 30 9 66 0 46 7 -39 13 -46 3 -62 2 -40 -3z"/> <path d="M190 1895 c0 -8 7 -15 15 -15 8 0 15 7 15 15 0 8 -7 15 -15 15 -8 0 -15 -7 -15 -15z"/> <path d="M270 1881 c20 -4 34 -12 33 -19 -2 -8 9 -12 30 -11 30 1 31 1 7 9 -22 7 -20 8 15 10 l40 3 -45 8 c-25 4 -61 7 -80 7 l-35 -1 35 -6z"/> <path d="M248 1863 c6 -2 18 -2 25 0 6 3 1 5 -13 5 -14 0 -19 -2 -12 -5z"/> <path d="M2620 2002 c-25 -4 -73 -32 -54 -32 5 0 16 6 22 12 10 10 17 10 32 0 17 -10 21 -10 26 3 8 20 5 22 -26 17z"/> <path d="M2605 1970 c3 -5 0 -10 -7 -10 -20 0 -40 -38 -30 -56 5 -9 4 -32 -2 -54 -7 -30 -7 -45 3 -64 8 -13 11 -32 8 -40 -4 -11 1 -15 21 -16 98 -3 144 -9 158 -21 14 -11 16 -10 13 6 -1 11 5 37 15 57 9 21 16 44 16 52 0 7 6 16 14 19 16 6 27 63 12 65 -6 1 -31 6 -56 12 -25 6 -62 13 -82 16 -20 4 -45 15 -54 25 -18 20 -40 26 -29 9z m29 -28 c3 -5 -8 -16 -25 -26 -22 -13 -29 -14 -29 -4 0 28 41 50 54 30z m93 -24 c15 -6 39 -12 52 -12 30 -1 51 -30 34 -47 -10 -10 -15 -6 -24 17 -6 16 -13 24 -16 18 -2 -8 -16 -5 -41 8 -45 23 -88 16 -119 -18 -35 -38 -31 -86 9 -119 27 -23 39 -26 77 -22 27 3 50 12 58 23 17 24 16 35 -2 28 -8 -4 -12 -10 -9 -15 3 -5 -7 -14 -21 -19 -35 -13 -48 -13 -39 3 6 8 3 8 -9 -1 -30 -25 -37 -2 -8 27 28 28 46 82 26 78 -5 -1 -8 -11 -7 -22 3 -23 -52 -80 -69 -70 -5 4 -8 14 -5 22 3 8 1 11 -4 8 -6 -3 -10 1 -10 9 0 9 6 16 13 16 8 0 7 4 -3 10 -13 9 -12 12 4 25 11 8 16 15 10 15 -5 0 -3 4 4 9 23 14 107 8 104 -8 -2 -8 3 -11 12 -8 16 7 30 -44 14 -54 -5 -3 -2 -9 8 -13 15 -6 16 -1 11 36 -4 34 -3 39 5 21 16 -33 1 -89 -30 -114 -41 -32 -116 -23 -154 20 -15 17 -28 40 -28 52 0 35 30 80 63 94 40 18 58 18 94 3z"/> <path d="M1051 1967 c2 -1 13 -9 24 -17 19 -14 19 -14 6 3 -7 9 -18 17 -24 17 -6 0 -8 -1 -6 -3z"/> <path d="M8 1953 c7 -3 16 -2 19 1 4 3 -2 6 -13 5 -11 0 -14 -3 -6 -6z"/> <path d="M1996 1935 c4 -8 10 -15 15 -15 4 0 6 7 3 15 -4 8 -10 15 -15 15 -4 0 -6 -7 -3 -15z"/> <path d="M1203 1911 c-18 -15 -33 -31 -33 -35 0 -5 12 -22 26 -39 l25 -30 -20 -20 c-15 -16 -23 -18 -34 -9 -8 7 -17 9 -20 5 -4 -3 -7 -1 -7 7 0 10 -3 10 -15 0 -8 -7 -15 -17 -15 -22 0 -6 7 -8 15 -4 8 3 15 1 15 -5 0 -16 51 -1 75 21 11 11 40 22 63 26 38 6 46 4 72 -21 16 -15 34 -40 40 -55 11 -26 54 -49 67 -36 3 3 -6 8 -20 11 -22 6 -58 60 -46 68 2 2 20 15 39 29 33 24 38 25 62 12 21 -11 32 -12 52 -2 15 6 26 15 26 20 0 5 -9 4 -19 -2 -34 -18 -53 -11 -93 31 -37 39 -38 42 -22 60 18 20 6 27 -13 8 -6 -6 -31 -15 -54 -19 -34 -6 -51 -4 -81 11 -47 24 -46 24 -85 -10z m82 -2 c31 -19 36 -26 33 -53 -3 -28 -7 -32 -45 -37 -37 -5 -43 -2 -67 27 l-26 33 33 25 c17 14 33 26 34 26 1 0 18 -10 38 -21z m144 -35 c28 -35 27 -38 -14 -69 -34 -26 -34 -26 -59 -8 -32 23 -37 89 -8 96 40 11 62 6 81 -19z"/> <path d="M1219 1893 l-24 -28 28 24 c25 23 32 31 24 31 -2 0 -14 -12 -28 -27z"/> <path d="M1297 1876 c-4 -10 -7 -25 -6 -34 0 -11 4 -9 10 7 5 13 8 29 6 35 -2 5 -6 2 -10 -8z"/> <path d="M1403 1814 l-28 -25 33 22 c17 13 32 24 32 26 0 8 -11 1 -37 -23z"/> <path d="M60 1910 c-6 -11 -16 -17 -25 -14 -8 4 -15 1 -15 -5 0 -6 5 -11 10 -11 6 0 10 -8 10 -17 0 -13 3 -14 12 -5 7 7 23 12 38 12 24 1 24 1 5 13 -12 7 -19 20 -17 30 5 23 -5 22 -18 -3z"/> <path d="M2025 1890 c3 -5 11 -10 16 -10 6 0 7 5 4 10 -3 6 -11 10 -16 10 -6 0 -7 -4 -4 -10z"/> <path d="M1586 1871 c-14 -16 -15 -19 -2 -24 19 -7 43 20 29 34 -6 6 -15 3 -27 -10z"/> <path d="M2860 1876 c0 -9 -4 -14 -10 -11 -6 4 -9 -5 -8 -19 1 -15 6 -26 9 -26 10 0 23 60 15 67 -3 4 -6 -1 -6 -11z"/> <path d="M2542 1840 c0 -14 2 -19 5 -12 2 6 2 18 0 25 -3 6 -5 1 -5 -13z"/> <path d="M1610 1835 c-10 -12 -10 -15 3 -15 8 0 17 7 21 15 3 8 2 15 -3 15 -5 0 -14 -7 -21 -15z"/> <path d="M2097 1700 c-22 -27 -22 -53 1 -48 10 2 16 11 14 21 -2 9 2 17 8 17 5 0 10 7 10 15 0 21 -12 19 -33 -5z"/> <path d="M570 1692 c-58 -16 -65 -21 -68 -45 -2 -19 -9 -27 -22 -27 -11 0 -25 -10 -31 -22 -15 -27 2 -42 141 -122 l99 -57 73 21 c123 36 129 39 121 69 -3 14 -12 30 -20 34 -21 13 -15 24 17 31 24 4 30 11 30 31 0 14 1 28 3 32 2 7 -190 61 -243 68 -19 2 -64 -4 -100 -13z m218 -28 l104 -28 -45 -17 c-43 -17 -45 -17 -158 12 -153 40 -152 40 -94 54 59 15 59 15 193 -21z m-134 -35 c67 -17 125 -35 130 -39 4 -5 4 -15 0 -23 -8 -12 -23 -11 -109 10 -55 13 -112 22 -126 20 -14 -2 -26 2 -27 7 0 6 -4 21 -7 34 -9 29 -7 28 139 -9z m210 -20 c-4 -8 0 -9 15 -4 13 4 21 2 21 -5 0 -6 -4 -8 -10 -5 -5 3 -10 1 -10 -4 0 -6 -3 -10 -7 -9 -5 1 -21 -4 -37 -11 -38 -15 -53 -10 -31 13 10 9 24 15 32 12 8 -3 12 -2 8 3 -3 5 1 12 7 14 19 8 20 8 12 -4z m-358 -8 c-3 -5 41 -36 97 -70 l103 -61 48 16 c33 12 51 13 58 6 7 -7 19 -7 34 -2 13 5 24 6 24 1 0 -7 -144 -51 -168 -51 -6 0 -9 8 -6 18 5 16 5 16 -8 0 -16 -19 -29 -13 -165 74 -66 42 -78 64 -40 71 12 2 23 5 25 6 2 0 1 -3 -2 -8z m163 -36 c65 -16 116 -23 137 -19 18 3 38 2 45 -2 12 -7 -107 -54 -138 -54 -14 0 -173 88 -173 96 0 8 26 4 129 -21z"/> <path d="M0 1681 c0 -18 78 -151 124 -211 34 -44 34 -45 15 -63 -10 -10 -19 -22 -19 -26 0 -5 -27 -3 -60 4 -33 7 -60 9 -60 4 0 -4 24 -12 53 -18 54 -11 168 -31 174 -31 13 0 -6 33 -61 103 -35 45 -87 120 -115 167 -28 47 -51 79 -51 71z m206 -319 c-3 -2 -18 -1 -35 3 -31 7 -42 29 -18 38 12 4 61 -33 53 -41z"/> <path d="M1987 1659 c-32 -17 -62 -27 -67 -24 -6 4 -10 1 -10 -5 0 -6 -4 -8 -10 -5 -5 3 -10 1 -10 -5 0 -6 -4 -8 -10 -5 -5 3 -10 2 -10 -3 0 -5 -28 -22 -62 -37 l-63 -28 102 -47 c55 -27 154 -78 218 -115 64 -37 118 -65 121 -62 2 2 -9 42 -26 87 -17 46 -29 89 -26 96 3 7 -1 15 -8 17 -7 3 -25 39 -40 81 -16 42 -31 78 -35 80 -3 2 -32 -9 -64 -25z m67 -4 c7 -20 -21 -32 -37 -16 -9 9 -8 14 3 21 21 13 27 12 34 -5z m-25 -40 c9 4 20 7 24 8 4 1 19 -24 32 -55 13 -32 19 -58 14 -58 -5 0 -9 -5 -9 -10 0 -5 5 -9 11 -7 6 1 20 -20 30 -48 19 -46 19 -50 3 -62 -14 -10 -24 -8 -58 13 -23 14 -89 50 -148 80 -123 62 -135 81 -67 108 22 9 45 13 51 10 7 -5 8 -2 3 6 -6 10 -4 12 8 7 10 -3 17 -2 17 3 0 5 12 16 28 24 25 13 28 13 36 -5 6 -13 15 -18 25 -14z m-219 -65 c0 -5 -7 -10 -16 -10 -8 0 -12 5 -9 10 3 6 10 10 16 10 5 0 9 -4 9 -10z m354 -186 c9 -24 8 -26 -14 -14 -11 6 -18 15 -15 21 9 14 22 11 29 -7z"/> <path d="M2902 1648 c-18 -18 -14 -38 8 -38 11 0 20 -3 20 -7 -1 -5 -46 -37 -101 -72 -55 -36 -98 -69 -96 -75 4 -11 184 -44 242 -45 45 -1 11 15 -50 23 -98 13 -116 19 -125 36 -10 18 5 30 158 125 24 14 41 29 38 33 -4 3 -12 0 -18 -6 -19 -19 -36 -14 -40 10 -4 26 -19 33 -36 16z m-117 -178 c3 -5 -1 -10 -10 -10 -9 0 -13 5 -10 10 3 6 8 10 10 10 2 0 7 -4 10 -10z"/> <path d="M2358 1633 c7 -3 16 -2 19 1 4 3 -2 6 -13 5 -11 0 -14 -3 -6 -6z"/> <path d="M136 1578 c-18 -23 -22 -36 -15 -45 14 -16 39 -5 39 17 0 10 7 23 15 30 19 16 19 30 1 30 -8 0 -26 -14 -40 -32z"/> <path d="M2330 1571 c-22 -42 -4 -101 30 -101 10 0 22 5 26 11 7 11 66 8 97 -5 13 -6 17 -3 17 12 0 17 8 22 48 27 78 10 79 12 15 20 -57 7 -63 10 -63 31 0 27 -12 31 -30 9 -7 -8 -27 -15 -45 -15 -18 0 -38 7 -45 15 -17 21 -37 19 -50 -4z m50 -31 c5 -21 7 -22 13 -7 8 20 67 24 68 5 0 -7 5 -2 12 12 11 24 11 24 15 -14 3 -39 -4 -58 -16 -41 -11 15 -86 12 -98 -4 -18 -23 -34 -3 -34 40 0 33 3 40 17 37 9 -2 20 -14 23 -28z m147 -16 c-3 -3 -12 -4 -19 -1 -8 3 -5 6 6 6 11 1 17 -2 13 -5z"/> <path d="M1675 1560 c-8 -13 4 -50 16 -50 5 0 9 3 9 8 0 4 3 17 6 30 5 16 2 22 -9 22 -9 0 -19 -5 -22 -10z"/> <path d="M1160 1531 c0 -6 4 -13 10 -16 6 -3 7 1 4 9 -7 18 -14 21 -14 7z"/> <path d="M1356 1483 c-5 -12 -9 -14 -18 -5 -16 16 -91 15 -106 0 -52 -52 58 -134 168 -126 40 3 45 6 48 29 3 24 -38 79 -59 79 -5 0 -9 9 -9 20 0 24 -15 26 -24 3z m-17 -19 c8 -7 -21 -32 -45 -38 -38 -10 -18 -26 33 -26 36 0 46 4 50 20 7 26 15 25 43 -5 19 -20 21 -27 10 -40 -16 -19 -43 -19 -108 0 -46 14 -92 52 -92 77 0 21 88 31 109 12z m31 -24 c0 -11 -7 -20 -15 -20 -17 0 -18 2 -9 24 9 23 24 20 24 -4z"/> <path d="M1857 1368 c-9 -7 -24 -31 -32 -52 -17 -39 -17 -39 -29 -15 -20 40 -41 35 -60 -16 -12 -31 -15 -49 -8 -58 7 -8 3 -21 -14 -42 -25 -32 -31 -28 -13 8 9 20 9 21 -5 4 -8 -10 -17 -18 -20 -18 -19 2 -26 0 -26 -9 0 -5 6 -7 14 -4 27 10 26 -15 -1 -29 l-27 -15 42 -21 c23 -12 42 -27 42 -34 0 -8 -3 -8 -9 2 -5 8 -11 9 -15 3 -9 -15 12 -26 27 -14 8 7 20 6 37 -3 35 -20 40 -19 40 13 0 32 32 96 49 98 6 1 15 2 20 3 14 2 52 71 45 82 -3 6 -19 7 -35 4 -35 -8 -36 -5 -3 46 35 56 23 98 -19 67z m9 -60 c-37 -60 -51 -82 -53 -87 -1 -1 -7 0 -14 5 -9 5 -7 11 6 21 11 7 16 13 12 13 -8 0 28 76 46 98 6 8 14 9 20 3 5 -5 -1 -25 -17 -53z m-77 -18 c5 -17 7 -29 3 -26 -5 3 -14 1 -22 -5 -10 -6 -11 -9 -2 -9 6 0 12 -4 12 -10 0 -11 -33 -14 -42 -4 -7 6 24 84 34 84 3 0 11 -14 17 -30z m111 -59 c0 -5 -8 -19 -18 -32 -19 -22 -52 -22 -52 1 0 6 3 9 8 7 4 -3 13 1 19 8 10 11 9 15 -5 18 -9 3 -2 5 16 6 17 0 32 -3 32 -8z m-83 -24 c8 -10 4 -40 -12 -79 l-19 -46 -48 24 -49 25 28 37 c37 49 44 53 73 46 14 -3 26 -6 27 -7z m-87 -112 c36 -19 61 -35 57 -35 -11 0 -127 59 -127 65 0 8 3 7 70 -30z"/> <path d="M945 1352 c-16 -8 -75 -45 -130 -82 -100 -68 -154 -115 -142 -126 9 -10 41 4 109 48 34 22 73 44 85 47 13 3 22 9 20 12 -3 9 24 39 36 39 6 0 2 -7 -9 -15 -10 -8 -15 -15 -11 -15 25 -1 97 78 97 107 0 7 -26 0 -55 -15z m19 -21 c3 -4 -4 -17 -17 -27 -18 -16 -19 -16 -8 -1 19 25 5 21 -35 -9 -18 -14 -31 -31 -27 -37 3 -5 2 -7 -4 -4 -6 4 -19 0 -29 -8 -22 -16 -44 -19 -44 -6 0 9 137 101 151 101 4 0 10 -4 13 -9z m-185 -125 c-25 -23 -92 -60 -88 -48 7 19 94 82 98 71 2 -6 -3 -17 -10 -23z"/> <path d="M2610 1356 c0 -2 8 -10 18 -17 15 -13 16 -12 3 4 -13 16 -21 21 -21 13z"/> <path d="M2474 1340 c-24 -9 -41 -30 -25 -30 5 0 13 5 16 10 3 6 20 10 36 10 18 0 28 4 24 10 -7 12 -22 12 -51 0z"/> <path d="M2196 1314 c-10 -26 -7 -34 12 -34 13 0 14 2 3 9 -17 11 -4 34 15 27 8 -3 14 -1 14 4 0 16 -37 11 -44 -6z"/> <path d="M2423 1283 c-4 -10 -12 -22 -20 -26 -7 -4 -13 -18 -12 -30 0 -21 1 -21 10 3 10 23 11 24 23 8 7 -10 23 -18 35 -18 16 0 21 6 21 25 0 20 -5 25 -25 25 -18 0 -23 4 -19 15 4 8 3 15 0 15 -4 0 -10 -8 -13 -17z m45 -41 c3 -9 -2 -13 -14 -10 -9 1 -19 9 -22 16 -3 9 2 13 14 10 9 -1 19 -9 22 -16z"/> <path d="M2540 1263 c0 -5 9 -18 21 -29 20 -18 21 -37 4 -76 -6 -15 -2 -18 19 -18 14 0 26 -3 26 -7 0 -5 4 -14 9 -21 7 -11 16 -9 48 11 22 14 82 46 134 73 91 46 93 47 64 55 -48 14 -325 24 -325 12z m279 -18 c-3 -2 -35 -11 -71 -18 -75 -16 -162 -11 -179 9 -10 12 10 14 121 14 74 0 131 -2 129 -5z m-74 -64 c-60 -33 -113 -56 -117 -53 -3 4 -8 18 -10 32 -3 23 1 25 92 46 52 11 102 23 110 27 50 19 21 -1 -75 -52z m-96 25 c-12 -10 -60 -16 -54 -6 3 5 18 10 32 10 15 0 24 -2 22 -4z m-45 -41 c3 -9 0 -15 -9 -15 -9 0 -12 6 -9 15 4 8 7 15 9 15 2 0 5 -7 9 -15z"/> <path d="M2400 1193 c0 -13 29 -38 35 -31 3 3 -4 13 -15 23 -11 10 -20 13 -20 8z"/> <path d="M400 1169 c-71 -17 -235 -29 -288 -20 -46 7 -54 6 -62 -10 -12 -21 -13 -86 -2 -92 4 -2 45 0 91 4 47 5 86 7 88 5 3 -2 -3 -25 -12 -51 -8 -26 -13 -50 -10 -53 7 -8 18 5 21 26 4 39 17 82 24 82 17 0 17 -15 -1 -58 -14 -31 -16 -49 -9 -56 7 -7 10 -3 10 13 0 15 5 21 13 18 29 -11 37 7 22 48 l-13 40 95 7 c52 4 101 12 109 18 23 20 27 50 8 71 -18 20 -30 22 -84 8z m74 -8 c3 -5 -6 -8 -19 -8 -14 0 -25 3 -25 8 0 5 9 9 19 9 11 0 22 -4 25 -9z m-58 -35 l0 -35 -74 -7 c-78 -7 -91 -1 -92 39 0 14 9 17 48 18 26 1 61 5 77 9 17 4 32 8 35 9 3 0 5 -14 6 -33z m-229 0 c1 -1 -1 -13 -4 -27 -5 -29 -32 -39 -99 -39 -29 0 -34 3 -34 24 0 51 7 56 73 49 34 -3 63 -6 64 -7z m291 -2 c-4 -21 -34 -41 -45 -30 -4 5 -3 11 4 13 7 2 9 11 6 19 -3 9 2 14 17 14 15 0 20 -5 18 -16z m-262 -19 c-4 -14 -2 -25 4 -25 5 0 10 12 11 28 0 24 1 25 9 7 14 -34 11 -41 -20 -43 -16 -1 -30 1 -30 5 1 22 14 53 22 53 6 0 7 -11 4 -25z m56 -107 c-7 -7 -12 -8 -12 -2 0 14 12 26 19 19 2 -3 -1 -11 -7 -17z"/> <path d="M1831 1122 c-10 -24 -10 -25 3 -9 10 13 15 14 18 6 3 -9 6 -8 11 3 10 29 -20 28 -32 0z"/> <path d="M2460 1146 c0 -14 52 -26 68 -16 14 8 12 9 -10 10 -14 0 -33 3 -42 6 -9 3 -16 3 -16 0z"/> <path d="M1034 1118 c-5 -8 0 -9 17 -5 19 5 15 -2 -21 -33 l-45 -39 43 -1 c24 0 42 5 42 11 0 6 -9 9 -20 6 -28 -7 -25 0 10 30 17 13 28 29 24 34 -8 13 -41 11 -50 -3z"/> <path d="M1229 1103 c-13 -15 -12 -15 9 -4 34 18 26 0 -15 -36 l-38 -32 40 0 c30 1 34 3 17 8 -24 6 -23 6 7 29 17 12 31 29 31 37 0 20 -34 19 -51 -2z"/> <path d="M1156 1102 c-4 -7 -16 -12 -27 -12 -10 0 -19 -4 -19 -10 0 -5 7 -10 16 -10 10 0 14 -6 10 -15 -7 -20 0 -19 22 3 12 12 16 25 12 37 -5 13 -9 15 -14 7z"/> <path d="M1422 1067 c-18 -26 -20 -33 -7 -35 11 -3 13 -8 5 -23 -7 -13 -7 -19 0 -19 5 0 10 4 10 9 0 5 12 23 26 40 14 17 21 31 15 31 -5 0 -14 -8 -20 -17 -5 -10 -12 -15 -16 -11 -4 3 1 18 10 32 25 38 4 32 -23 -7z"/> <path d="M1323 1063 c9 -2 25 -2 35 0 9 3 1 5 -18 5 -19 0 -27 -2 -17 -5z"/> <path d="M1310 1040 c0 -5 15 -10 33 -10 24 0 28 3 17 10 -20 13 -50 13 -50 0z"/> <path d="M2147 983 l-88 -4 3 -37 3 -37 241 -3 242 -2 6 24 c9 38 -2 56 -38 56 -17 1 -87 2 -156 4 -69 1 -165 1 -213 -1z m-10 -33 c-3 -14 -1 -20 6 -17 7 2 11 12 9 21 -3 14 3 17 25 14 22 -2 28 -8 27 -25 -1 -13 3 -20 8 -17 5 4 8 15 5 25 -4 15 0 19 24 19 22 0 29 -5 29 -19 0 -25 16 -36 24 -16 3 8 1 15 -4 15 -6 0 -10 4 -10 9 0 5 58 9 130 9 l130 -1 0 -28 0 -29 -232 2 -233 3 -3 25 c-3 23 1 26 34 28 33 3 36 1 31 -18z"/> <path d="M2332 945 c-17 -20 5 -20 24 0 12 11 12 15 2 15 -7 -1 -19 -7 -26 -15z"/> <path d="M2453 945 c-9 -25 4 -29 17 -6 7 15 7 21 0 21 -6 0 -13 -7 -17 -15z"/> <path d="M2507 945 c-4 -8 -2 -17 3 -20 6 -4 10 -4 10 -1 0 2 3 11 6 20 3 9 2 16 -4 16 -5 0 -12 -7 -15 -15z"/> <path d="M2390 934 c0 -8 5 -12 10 -9 6 3 10 10 10 16 0 5 -4 9 -10 9 -5 0 -10 -7 -10 -16z"/> <path d="M650 965 c-6 -8 -9 -23 -5 -34 5 -16 18 -20 78 -25 101 -7 103 -8 102 -32 0 -37 -24 -54 -76 -54 -26 0 -59 4 -73 9 -33 13 -54 -9 -38 -43 7 -16 22 -25 50 -30 144 -23 247 87 160 171 -18 18 -46 37 -61 42 -42 16 -122 14 -137 -4z m138 -11 c56 -23 107 -94 68 -94 -8 0 -16 10 -18 23 -2 12 -7 22 -13 22 -5 1 -34 7 -63 14 -29 7 -64 10 -77 7 -14 -4 -25 -2 -25 4 0 15 86 12 125 -4 43 -18 46 -12 5 9 -16 8 -52 15 -80 15 -32 0 -49 4 -45 10 9 15 81 12 123 -6z m76 -113 c15 -24 -57 -61 -118 -61 -41 0 -108 19 -102 29 3 4 38 6 78 3 63 -4 76 -2 98 17 28 23 36 25 44 12z m-183 -69 c-7 -2 -18 1 -23 6 -8 8 -4 9 13 5 13 -4 18 -8 10 -11z m56 -8 c-3 -3 -12 -4 -19 -1 -8 3 -5 6 6 6 11 1 17 -2 13 -5z"/> <path d="M583 937 c-32 -11 -48 -47 -20 -47 19 1 54 30 36 30 -8 1 -3 7 11 15 29 16 19 17 -27 2z m7 -21 c0 -11 -19 -15 -25 -6 -3 5 1 10 9 10 9 0 16 -2 16 -4z"/> <path d="M1748 887 c-11 -18 -52 -54 -89 -81 -99 -70 -94 -80 40 -96 125 -14 142 -11 135 22 -3 13 -6 31 -6 41 1 9 -5 17 -12 17 -18 0 -38 -25 -28 -35 4 -5 2 -5 -5 -1 -6 3 -14 2 -18 -4 -3 -5 3 -10 14 -10 11 0 23 5 26 10 3 6 1 10 -5 10 -6 0 -8 5 -5 10 12 19 20 10 21 -25 1 -39 -5 -41 -101 -25 -45 8 -42 8 25 5 61 -3 68 -2 40 6 -19 5 -68 7 -107 3 -44 -3 -73 -2 -73 4 0 5 10 7 23 5 26 -5 77 12 77 27 0 16 -32 12 -45 -6 -6 -9 -19 -15 -29 -13 -13 3 -3 14 35 43 29 22 62 40 73 42 12 1 44 5 71 8 l50 6 -40 -13 c-22 -8 -39 -19 -37 -25 1 -7 -4 -12 -12 -12 -19 0 -36 -23 -27 -38 5 -9 18 -1 42 26 19 21 41 39 49 40 84 11 101 16 110 33 9 15 6 19 -22 23 -18 3 -53 7 -78 9 -35 3 -31 4 15 4 77 1 117 -8 122 -27 4 -12 3 -12 -5 -1 -12 17 -24 -1 -16 -26 5 -15 4 -16 -6 -3 -10 13 -11 13 -7 -2 7 -21 -27 -52 -58 -54 -13 0 -22 3 -19 7 2 4 13 6 24 4 12 -2 18 0 15 6 -10 15 -31 10 -51 -13 -10 -12 -13 -18 -6 -14 13 8 17 -6 5 -18 -8 -8 -13 -36 -6 -36 15 0 111 95 131 129 l22 40 -37 10 c-21 5 -73 11 -116 14 l-78 6 -21 -32z m161 -13 c46 -10 8 -19 -78 -19 -79 0 -86 1 -71 15 17 15 91 17 149 4z m-14 -104 c-3 -5 -16 -15 -28 -21 -21 -10 -21 -9 2 10 25 23 36 27 26 11z"/> <path d="M1084 859 c-36 -10 -58 -32 -77 -79 -19 -44 -8 -73 35 -100 47 -28 99 -26 133 6 15 14 30 22 34 18 3 -4 0 -9 -6 -11 -7 -3 -13 -13 -13 -24 0 -22 106 -109 132 -109 20 0 42 35 32 51 -15 24 -98 94 -118 99 -18 5 -21 13 -21 53 -1 52 -13 69 -65 90 -24 10 -45 11 -66 6z m87 -31 c23 -15 50 -76 28 -62 -5 3 -9 -6 -9 -19 0 -28 -16 -37 -69 -37 -47 0 -78 22 -86 62 -15 64 72 100 136 56z m-86 -128 c20 -7 48 -9 63 -6 26 6 26 6 8 -9 -53 -41 -147 9 -146 77 1 20 4 18 20 -14 14 -25 31 -40 55 -48z m208 -45 c51 -47 60 -75 26 -75 -25 0 -109 65 -109 84 0 12 20 36 30 36 3 -1 26 -20 53 -45z"/> <path d="M1072 828 c-20 -20 -14 -38 12 -38 13 0 31 -3 40 -6 25 -9 20 22 -6 40 -27 19 -31 19 -46 4z m58 -29 c0 -4 -11 -2 -24 4 -13 7 -22 15 -20 19 5 8 44 -13 44 -23z"/> <path d="M1157 805 c15 -19 29 -32 31 -30 6 6 -38 65 -49 65 -5 0 3 -16 18 -35z"/> <path d="M533 853 c14 -4 16 -8 7 -18 -9 -11 -8 -14 7 -14 10 1 29 -2 43 -5 21 -5 20 -4 -5 8 l-30 15 30 2 30 1 -30 8 c-16 4 -39 8 -50 8 -17 0 -17 -1 -2 -5z"/> <path d="M2657 846 c-70 -26 -103 -63 -113 -123 -8 -56 0 -86 37 -127 79 -90 253 -60 289 50 43 129 -84 248 -213 200z m145 -24 c9 -9 6 -12 -14 -12 -15 0 -47 -16 -73 -36 -26 -19 -51 -34 -56 -32 -5 2 0 21 11 43 11 21 20 42 20 45 -1 11 -40 -43 -40 -56 0 -22 -17 -16 -23 8 -4 12 -9 19 -12 16 -4 -3 1 -20 9 -36 23 -44 13 -63 -25 -50 -16 5 -32 14 -35 19 -12 20 10 52 54 80 39 25 53 28 108 26 35 -1 69 -8 76 -15z m42 -44 c25 -36 19 -46 -36 -63 -64 -19 -172 -21 -166 -2 3 6 13 14 24 15 10 2 30 14 44 27 56 51 109 60 134 23z m-214 -103 c0 -11 -60 -48 -67 -41 -3 2 -7 23 -10 45 l-6 41 42 -18 c22 -9 41 -21 41 -27z m235 8 c-13 -69 -21 -76 -80 -71 -57 5 -145 45 -145 65 0 9 22 13 73 14 39 0 88 7 107 14 51 20 53 19 45 -22z m-235 -62 c0 -17 5 -33 10 -36 6 -3 10 -11 10 -16 0 -10 -20 -2 -55 24 -19 15 -19 16 -1 36 26 29 36 26 36 -8z m150 -21 c41 0 43 -1 27 -17 -10 -10 -38 -18 -75 -21 -65 -5 -78 4 -88 57 l-7 33 49 -26 c32 -17 65 -26 94 -26z"/> <path d="M169 795 l-34 -56 -70 6 c-50 4 -66 3 -55 -4 8 -6 36 -11 63 -11 26 0 47 -3 47 -6 0 -3 -14 -25 -30 -49 -27 -40 -34 -44 -60 -38 -19 3 -30 1 -30 -6 0 -6 12 -11 26 -11 l26 0 -26 -46 c-39 -69 -31 -78 10 -11 37 60 48 65 115 48 l26 -6 -43 -77 c-23 -43 -39 -78 -34 -78 5 0 28 35 51 78 l42 78 61 -2 61 -3 -53 9 c-29 4 -55 10 -57 12 -2 2 7 22 21 45 23 40 26 41 57 32 17 -5 41 -9 52 -9 17 0 17 2 5 10 -8 5 -27 10 -42 10 -39 0 -42 14 -12 65 14 25 24 48 21 51 -3 4 -20 -19 -37 -50 l-32 -56 -41 6 c-23 4 -44 8 -46 10 -2 2 11 26 29 54 18 28 30 53 27 56 -3 3 -20 -20 -38 -51z m58 -88 c2 -2 -7 -22 -19 -45 l-23 -42 -50 6 c-27 4 -51 7 -52 8 -1 0 10 21 25 45 25 43 26 43 70 37 25 -3 47 -8 49 -9z"/> <path d="M133 674 c-10 -22 -10 -25 3 -20 7 3 14 1 14 -4 0 -6 5 -10 11 -10 5 0 7 5 4 10 -4 6 -1 18 7 27 11 14 11 16 -4 10 -9 -3 -18 -2 -20 3 -2 5 -8 -2 -15 -16z"/> <path d="M54 815 c-9 -23 3 -45 26 -45 25 0 37 25 20 45 -16 19 -39 19 -46 0z m44 -17 c-3 -7 -11 -13 -18 -13 -7 0 -15 6 -17 13 -3 7 4 12 17 12 13 0 20 -5 18 -12z"/> <path d="M1720 819 c0 -11 27 -12 34 -1 2 4 -4 9 -15 9 -10 1 -19 -2 -19 -8z"/> <path d="M1893 823 c15 -2 25 -9 22 -14 -10 -14 1 -10 15 6 11 13 7 15 -26 14 -31 -2 -33 -3 -11 -6z"/> <path d="M1820 808 c0 -11 28 -10 35 1 3 6 -4 9 -15 8 -11 -1 -20 -5 -20 -9z"/> <path d="M1695 801 c-7 -12 12 -24 25 -16 11 7 4 25 -10 25 -5 0 -11 -4 -15 -9z"/> <path d="M2240 785 c-5 -14 -14 -25 -20 -25 -6 0 -16 -12 -22 -26 -11 -22 -10 -28 7 -40 17 -12 17 -14 2 -14 -9 0 -17 -7 -17 -15 0 -8 -6 -15 -14 -15 -7 0 -25 -9 -40 -21 -20 -16 -26 -29 -26 -59 0 -53 31 -73 119 -78 56 -3 70 -1 94 18 36 29 37 81 2 115 -13 14 -31 25 -40 25 -8 0 -15 7 -15 15 0 8 -7 15 -16 15 -13 0 -11 4 6 18 21 17 22 21 11 55 -7 20 -10 41 -6 47 3 5 1 10 -5 10 -6 0 -15 -11 -20 -25z m20 -40 c0 -14 0 -28 0 -32 0 -9 -41 -13 -52 -7 -12 7 3 34 18 34 8 0 14 7 14 15 0 8 5 15 10 15 6 0 10 -11 10 -25z m-2 -92 c-2 -11 -14 -19 -31 -21 -22 -3 -27 1 -27 17 0 17 6 21 31 21 24 0 30 -4 27 -17z m-54 -28 c18 -14 16 -15 -27 -15 -52 0 -59 6 -24 20 29 12 29 12 51 -5z m123 -17 c17 -20 17 -20 -2 -15 -11 3 -35 9 -53 12 -30 6 -31 8 -16 20 22 15 47 9 71 -17z m-122 -18 c-3 -5 -17 -10 -30 -10 -13 0 -27 5 -30 10 -4 6 8 10 30 10 22 0 34 -4 30 -10z m83 0 c12 0 22 -4 22 -10 0 -5 -22 -10 -50 -10 -41 0 -48 3 -43 16 4 10 13 14 27 10 11 -3 31 -6 44 -6z m-109 -25 c23 -8 47 -13 54 -10 6 2 33 6 60 9 36 4 47 2 47 -8 0 -27 -50 -56 -96 -56 -51 0 -68 17 -22 22 32 3 42 18 17 27 -7 2 -9 -1 -5 -8 5 -7 -3 -11 -21 -11 -16 0 -33 -4 -39 -10 -14 -14 -54 16 -54 41 0 23 5 23 59 4z"/> <path d="M311 771 c-17 -11 -8 -39 15 -48 20 -8 49 21 41 41 -7 18 -34 21 -56 7z m39 -16 c0 -8 -7 -15 -15 -15 -16 0 -20 12 -8 23 11 12 23 8 23 -8z"/> <path d="M1715 760 c-3 -5 -1 -10 4 -10 6 0 11 5 11 10 0 6 -2 10 -4 10 -3 0 -8 -4 -11 -10z"/> <path d="M265 669 c4 -6 -1 -17 -11 -25 -17 -14 -17 -15 -1 -10 9 3 17 1 17 -4 0 -6 5 -10 11 -10 5 0 7 5 4 11 -4 6 1 17 11 25 17 14 17 15 2 10 -10 -3 -18 -1 -18 4 0 6 -5 10 -11 10 -5 0 -7 -5 -4 -11z"/> <path d="M2476 672 c-3 -5 1 -9 9 -9 8 0 12 4 9 9 -3 4 -7 8 -9 8 -2 0 -6 -4 -9 -8z"/> <path d="M516 522 c-123 -59 -132 -70 -66 -87 17 -4 31 -19 42 -46 21 -50 78 -78 160 -79 31 0 59 -4 63 -9 3 -5 -1 -28 -9 -50 -13 -41 -13 -41 11 -47 32 -8 48 14 27 37 -7 8 -14 27 -14 41 0 22 5 26 41 31 53 7 61 16 67 75 4 47 7 52 54 82 40 26 47 35 36 45 -12 11 -246 65 -278 65 -8 0 -69 -26 -134 -58z m284 13 c62 -14 115 -27 117 -29 5 -4 -38 -32 -113 -73 -73 -39 -98 -40 -230 -12 -145 31 -144 31 -144 39 0 13 194 98 226 99 17 1 82 -10 144 -24z m19 -122 c-10 -11 -10 -14 -1 -9 6 4 12 2 12 -4 0 -6 -7 -13 -16 -17 -13 -5 -13 -7 -2 -14 10 -7 9 -9 -4 -9 -10 0 -18 -4 -18 -10 0 -5 8 -7 18 -5 9 3 4 -1 -13 -9 -50 -25 -65 -21 -65 17 1 28 6 35 43 53 53 27 63 28 46 7z m-194 -18 c88 -16 90 -17 92 -46 2 -27 -1 -29 -31 -29 -60 0 -135 19 -155 39 -11 11 -17 22 -13 25 3 3 0 6 -7 6 -7 0 -10 4 -7 9 4 5 0 12 -6 15 -7 3 -2 4 12 2 14 -3 66 -12 115 -21z"/> <path d="M1461 559 c-15 -6 -21 -14 -17 -25 8 -21 -9 -51 -34 -59 -11 -3 -23 -17 -26 -29 -7 -29 -48 -52 -83 -47 -34 4 -66 27 -66 47 0 9 -8 22 -17 28 -26 16 -57 -16 -38 -39 7 -8 21 -13 30 -10 10 3 23 -2 31 -11 23 -28 18 -66 -12 -106 -23 -29 -26 -38 -15 -47 10 -8 16 -8 25 2 6 8 8 16 6 19 -12 12 19 58 34 53 9 -2 36 9 60 25 24 17 49 30 55 31 46 3 61 8 71 22 15 20 34 21 58 2 35 -26 65 8 32 35 -12 10 -19 10 -27 2 -17 -17 -55 -15 -62 3 -8 21 15 67 30 61 21 -8 39 21 24 39 -14 17 -25 18 -59 4z m49 -14 c0 -8 -7 -15 -15 -15 -8 0 -15 7 -15 15 0 8 7 15 15 15 8 0 15 -7 15 -15z m-49 -52 c-12 -20 -14 -14 -5 12 4 9 9 14 11 11 3 -2 0 -13 -6 -23z m-241 -38 c0 -8 -7 -15 -15 -15 -16 0 -20 12 -8 23 11 12 23 8 23 -8z m238 -23 c-5 -24 -52 -23 -56 2 -2 10 2 22 9 27 18 11 51 -9 47 -29z m97 -2 c3 -5 -1 -10 -9 -10 -9 0 -16 5 -16 10 0 6 4 10 9 10 6 0 13 -4 16 -10z m-165 -29 c-8 -5 -26 -12 -40 -15 l-25 -7 25 15 c14 9 32 15 40 15 13 0 13 -1 0 -8z m-75 -31 c0 -8 -10 -16 -22 -18 -18 -3 -23 2 -23 18 0 16 5 21 23 18 12 -2 22 -10 22 -18z"/> <path d="M200 545 c0 -12 -5 -26 -11 -32 -7 -7 -3 -10 15 -10 14 0 23 4 20 9 -3 5 0 16 8 25 11 14 11 16 -1 9 -8 -5 -17 -3 -22 5 -7 11 -9 9 -9 -6z"/> <path d="M1255 520 c3 -5 8 -10 11 -10 2 0 4 5 4 10 0 6 -5 10 -11 10 -5 0 -7 -4 -4 -10z"/> <path d="M1942 487 c-12 -7 -19 -17 -15 -22 4 -4 3 -5 -4 -1 -17 10 -123 -52 -123 -72 0 -14 60 -194 85 -254 5 -13 14 -16 30 -12 20 5 23 3 18 -14 -2 -11 0 -29 6 -41 10 -17 14 -19 25 -9 7 7 12 17 11 23 -20 69 -18 74 50 107 36 18 65 37 65 43 0 10 -28 93 -76 223 -17 45 -32 51 -72 29z m93 -124 c22 -64 41 -119 43 -123 1 -4 -10 -12 -25 -19 -70 -31 -114 -63 -104 -74 11 -14 10 -67 -2 -60 -5 3 -6 11 -3 19 8 20 -4 45 -17 37 -6 -4 -8 0 -4 10 7 20 -60 217 -81 234 -11 10 -3 17 47 43 34 17 60 34 57 38 -2 4 8 8 23 9 25 2 28 -3 66 -114z m-191 -38 c25 -82 57 -167 62 -163 2 3 -12 48 -31 102 -19 53 -35 102 -34 109 0 7 17 -37 39 -97 28 -77 36 -114 30 -130 -8 -20 -9 -20 -20 9 -21 51 -80 228 -80 239 0 22 17 -12 34 -69z"/> <path d="M1974 394 c3 -9 6 -18 6 -20 0 -3 4 -3 10 1 11 7 2 35 -12 35 -6 0 -7 -7 -4 -16z"/> <path d="M1944 387 c-3 -9 -10 -15 -14 -12 -12 8 -24 -15 -14 -25 5 -5 20 -1 34 10 20 15 22 22 13 31 -10 10 -14 9 -19 -4z"/> <path d="M1880 353 c0 -25 15 -38 25 -22 4 6 0 18 -9 27 -15 15 -16 15 -16 -5z"/> <path d="M2230 420 c0 -5 5 -10 11 -10 5 0 7 5 4 10 -3 6 -8 10 -11 10 -2 0 -4 -4 -4 -10z"/> <path d="M2770 413 c-19 -2 -62 -8 -95 -13 -33 -5 -124 -16 -203 -25 -134 -14 -202 -33 -202 -57 0 -4 -16 -23 -35 -42 -40 -40 -43 -52 -15 -61 28 -9 25 -20 -15 -51 -24 -18 -35 -35 -35 -52 0 -13 -7 -30 -17 -37 -18 -13 -10 -35 14 -35 8 0 26 -9 40 -20 27 -21 63 -26 79 -11 5 5 38 5 79 -1 44 -6 83 -6 107 0 21 6 38 6 38 2 0 -5 9 -8 19 -7 11 0 17 5 15 9 -3 4 0 17 7 29 9 17 8 20 -2 14 -7 -5 -10 -4 -5 3 4 6 17 7 34 3 22 -6 27 -13 25 -35 -1 -14 2 -24 8 -21 5 4 9 12 9 19 0 7 21 17 47 23 42 10 49 9 61 -8 24 -34 102 -16 102 24 0 7 16 21 36 32 l36 20 3 108 c3 103 2 109 -22 138 -33 38 -69 55 -113 52z m35 -28 c-30 -14 -30 -14 15 -8 41 6 44 5 31 -11 -12 -14 -12 -16 1 -11 17 7 34 -11 40 -39 3 -17 -7 -21 -87 -34 -49 -8 -116 -15 -148 -15 -36 -1 -51 -5 -40 -9 10 -4 -2 -5 -27 -2 -33 4 -41 2 -30 -5 12 -9 11 -11 -8 -11 -28 0 -25 23 4 28 29 5 47 12 42 17 -2 3 -20 0 -38 -5 -25 -7 -36 -6 -42 3 -11 17 -10 25 5 30 6 2 4 3 -5 2 -20 -3 -24 11 -5 18 6 2 1 5 -13 5 -14 0 -36 3 -50 6 -22 6 -23 6 -4 -3 21 -9 74 -70 74 -85 0 -4 -16 6 -35 21 -19 15 -35 33 -35 40 0 6 -8 10 -17 8 -10 -1 -28 1 -39 6 -13 4 -26 3 -34 -4 -10 -9 -11 -9 -6 1 4 7 2 13 -6 13 -16 2 58 13 187 28 55 6 121 15 145 20 25 5 70 9 100 9 55 1 55 1 25 -13z m-475 -50 c0 -2 -12 -11 -27 -20 l-28 -16 28 6 c15 3 39 2 53 -1 25 -6 26 -9 21 -57 -4 -27 -8 -51 -10 -53 -9 -9 -117 10 -117 21 0 17 27 39 32 26 1 -5 14 -1 27 10 13 10 18 19 12 19 -7 0 -10 4 -7 9 4 5 -2 8 -11 6 -10 -2 -22 -4 -26 -4 -5 -1 -6 -5 -3 -10 3 -5 -1 -14 -9 -21 -12 -10 -15 -10 -15 3 0 8 7 20 15 27 8 7 13 16 10 20 -3 5 5 16 17 24 22 16 38 20 38 11z m125 -54 c57 -26 67 -41 54 -80 -13 -38 -6 -50 21 -33 17 10 20 10 20 -4 0 -18 -43 -16 -120 6 -57 17 -56 16 -35 40 19 21 41 28 29 9 -3 -6 6 -3 21 7 26 17 26 18 9 31 -20 14 -40 12 -37 -5 1 -5 -4 -16 -12 -22 -13 -11 -15 -6 -15 29 0 47 6 49 65 22z m-150 -22 c-4 -5 -12 -9 -18 -8 -9 0 -8 2 1 6 6 2 9 10 6 15 -4 7 -2 8 5 4 6 -4 9 -12 6 -17z m565 -18 c0 -35 -3 -39 -30 -43 -29 -4 -30 -3 -30 32 0 43 5 50 37 50 20 0 23 -5 23 -39z m20 -42 c-4 -65 -9 -83 -24 -95 -26 -19 -30 -18 -41 9 -7 16 -18 22 -40 22 -24 0 -33 -6 -45 -32 -11 -23 -24 -33 -48 -38 -18 -3 -39 -8 -45 -11 -7 -2 -17 6 -22 18 -13 30 -49 35 -72 9 -10 -12 -26 -30 -36 -42 -29 -32 -61 -21 -68 23 -5 32 -2 40 18 53 20 14 215 51 366 70 l47 6 0 45 c0 24 3 44 8 44 4 0 5 -36 2 -81z m-659 28 c-13 -13 -15 1 -4 30 7 17 8 17 11 -1 2 -10 -1 -23 -7 -29z m569 3 c0 -38 -2 -40 -30 -40 -27 0 -30 3 -30 34 0 34 9 44 43 45 13 1 17 -7 17 -39z m-352 21 c11 -7 10 -9 -3 -14 -9 -4 -14 -3 -10 2 3 5 -1 12 -7 14 -7 3 -8 6 -3 6 6 0 16 -3 23 -8z m282 -18 c0 -38 -10 -49 -49 -58 -29 -6 -33 -5 -28 10 4 9 7 27 7 40 0 18 6 25 28 28 15 2 30 5 35 6 4 0 7 -11 7 -26z m-85 -27 c-6 -28 -13 -37 -34 -42 -14 -3 -32 -7 -39 -10 -10 -3 -11 5 -6 34 3 20 9 40 13 44 5 6 62 16 69 12 2 -1 0 -18 -3 -38z m-88 -13 c-3 -10 -5 -4 -5 12 0 17 2 24 5 18 2 -7 2 -21 0 -30z m-17 8 c0 -10 -6 -21 -13 -24 -10 -4 -13 2 -9 19 5 28 22 32 22 5z m-127 -38 c31 -9 57 -18 57 -21 0 -3 -7 -13 -16 -23 -14 -15 -19 -16 -47 -4 -18 7 -59 18 -92 25 -92 19 -93 19 -70 36 22 16 72 12 168 -13z m-53 -47 c68 -19 75 -23 75 -46 0 -20 -5 -25 -25 -27 -14 -1 -18 0 -7 3 9 3 17 12 17 20 0 10 -7 14 -17 12 -10 -2 -17 -10 -15 -16 4 -23 -19 -12 -28 13 -13 34 -32 40 -67 20 l-28 -16 40 6 c25 4 35 2 27 -3 -10 -7 -8 -11 9 -15 13 -4 20 -9 17 -12 -3 -4 -15 -2 -26 4 -12 6 -34 11 -51 11 -40 0 -39 17 2 35 24 11 27 14 11 15 -11 0 -31 -11 -44 -25 -25 -26 -51 -35 -30 -10 6 8 9 19 5 25 -10 16 -35 11 -35 -7 0 -16 2 -16 11 -3 9 12 10 12 7 1 -7 -25 -28 -24 -28 1 0 51 37 54 180 14z m450 4 c11 -8 7 -9 -15 -4 -37 8 -45 14 -19 14 10 0 26 -5 34 -10z m-57 -47 c-3 -18 -9 -33 -14 -33 -12 0 -11 13 1 46 13 34 19 28 13 -13z m61 14 c14 -22 -4 -52 -30 -52 -23 0 -31 39 -13 61 14 17 28 14 43 -9z m-203 -14 c13 -15 12 -15 -11 -3 -34 17 -36 20 -18 20 9 0 22 -7 29 -17z m-309 -24 c73 -11 137 -25 143 -30 13 -13 -9 -12 -152 12 -71 11 -132 25 -137 30 -14 13 -5 12 146 -12z m-32 -29 c12 -8 9 -10 -12 -10 -15 0 -30 5 -33 10 -8 13 25 13 45 0z"/> <path d="M2777 83 c-4 -3 -7 -12 -7 -20 0 -15 26 -18 34 -4 7 11 -18 33 -27 24z m18 -13 c3 -5 1 -10 -4 -10 -6 0 -11 5 -11 10 0 6 2 10 4 10 3 0 8 -4 11 -10z"/> <path d="M191 389 c-94 -11 -130 -32 -160 -93 -19 -37 -24 -65 -25 -122 -1 -41 2 -74 7 -74 4 0 7 9 7 20 0 24 8 25 38 4 28 -20 28 -42 -1 -48 -55 -12 -59 -15 -19 -13 23 2 42 -1 42 -5 0 -4 -19 -11 -42 -16 -29 -7 -35 -10 -18 -11 46 -1 68 10 73 37 7 34 -16 70 -48 78 -29 7 -29 4 -10 78 8 32 12 63 8 69 -3 7 -2 9 2 4 9 -8 57 32 51 42 -2 3 6 7 17 8 12 1 48 5 80 9 67 8 69 4 32 -74 -31 -66 -31 -77 -3 -96 37 -26 166 -13 169 17 3 26 -4 53 -19 82 -9 17 -18 48 -21 70 -6 39 -7 40 -46 41 -22 1 -73 -2 -114 -7z m147 -20 c2 -13 -6 -18 -37 -21 -37 -3 -41 -1 -41 20 0 21 4 23 37 20 26 -2 39 -8 41 -19z m-208 -9 c0 -5 -5 -10 -11 -10 -5 0 -7 5 -4 10 3 6 8 10 11 10 2 0 4 -4 4 -10z m225 -70 c14 -27 25 -51 25 -52 0 -2 -36 -3 -80 -3 -44 0 -80 2 -80 5 0 16 47 90 60 94 40 11 50 5 75 -44z m-65 -71 c0 -8 5 -7 15 1 9 7 19 10 22 6 10 -9 -18 -27 -36 -23 -17 2 -27 27 -12 27 6 0 11 -5 11 -11z m-20 -14 c7 -8 21 -15 31 -15 9 0 24 7 33 15 16 17 46 20 46 5 0 -15 -79 -32 -116 -26 -17 4 -37 13 -44 21 -10 13 -8 15 13 15 13 0 30 -7 37 -15z"/> <path d="M920 342 c0 -14 11 -21 26 -15 21 8 17 23 -6 23 -11 0 -20 -4 -20 -8z"/> <path d="M972 319 c2 -6 8 -10 13 -10 5 0 11 4 13 10 2 6 -4 11 -13 11 -9 0 -15 -5 -13 -11z"/> <path d="M930 290 c0 -5 7 -10 15 -10 8 0 15 5 15 10 0 6 -7 10 -15 10 -8 0 -15 -4 -15 -10z"/> <path d="M1704 286 c-39 -17 -103 -82 -111 -114 -4 -19 -10 -22 -27 -17 -73 24 -136 8 -136 -34 0 -24 31 -51 58 -51 15 0 22 -6 22 -18 0 -43 58 -57 84 -20 11 15 14 34 10 59 -6 33 -3 38 17 44 39 13 88 56 114 100 39 66 32 78 -31 51z m16 -9 c0 -1 -27 -29 -60 -62 -64 -64 -74 -68 -36 -16 26 35 96 92 96 78z m9 -32 c-20 -33 -88 -95 -105 -95 -5 0 21 29 56 65 35 36 66 65 67 65 1 0 -7 -16 -18 -35z m-180 -98 c25 -11 28 -16 18 -26 -10 -10 -8 -11 6 -6 9 4 17 3 17 -4 0 -5 -13 -9 -29 -8 -22 2 -27 5 -19 15 6 7 8 15 4 19 -3 4 -12 -2 -20 -12 -9 -13 -19 -16 -32 -10 -17 7 -16 9 11 21 23 10 25 13 10 13 -29 1 -49 -15 -42 -33 4 -9 17 -16 29 -16 33 0 49 -13 38 -30 -14 -23 8 -42 34 -29 20 11 20 11 3 -7 -23 -24 -53 -7 -50 28 1 21 -3 24 -21 21 -13 -3 -32 4 -46 16 l-25 21 24 20 c27 23 47 25 90 7z m29 -75 c-5 -27 -28 -26 -26 1 1 16 7 23 16 20 7 -3 12 -12 10 -21z"/> <path d="M965 270 c-3 -6 -15 -10 -25 -10 -17 0 -18 -6 -13 -56 6 -53 5 -57 -30 -92 -20 -20 -43 -53 -51 -72 l-14 -35 124 0 c68 0 124 1 124 3 0 17 -38 84 -62 109 -29 30 -31 36 -26 85 4 37 2 57 -8 65 -8 8 -15 9 -19 3z m15 -77 c0 -38 5 -62 17 -75 15 -17 14 -18 -30 -18 -46 0 -63 15 -31 27 8 3 13 12 10 19 -3 7 0 16 6 20 7 4 6 9 -3 15 -12 8 -11 11 1 19 8 5 10 10 5 10 -6 0 -11 9 -11 20 0 13 7 20 18 20 15 0 18 -9 18 -57z m3 -106 c45 2 49 0 64 -33 9 -18 14 -36 11 -39 -2 -3 -30 0 -61 6 -41 9 -68 9 -99 1 -23 -6 -44 -10 -46 -8 -10 10 24 56 42 57 12 0 15 3 9 6 -24 9 -14 25 10 16 12 -4 44 -7 70 -6z"/> <path d="M1142 58 c0 -35 3 -48 5 -30 2 17 8 32 12 32 11 0 1 49 -10 56 -5 3 -8 -23 -7 -58z"/> <path d="M1179 98 c-3 -13 -1 -41 2 -63 l6 -40 2 40 c1 22 4 50 7 63 4 12 2 22 -4 22 -5 0 -11 -10 -13 -22z"/> <path d="M1261 106 c-16 -19 -24 -78 -12 -95 22 -33 65 24 59 78 -3 30 -29 39 -47 17z m32 -36 c0 -18 -8 -40 -17 -48 -15 -15 -16 -14 -16 13 0 44 11 76 24 72 6 -2 10 -19 9 -37z"/> <path d="M50 100 c0 -5 5 -10 10 -10 6 0 10 5 10 10 0 6 -4 10 -10 10 -5 0 -10 -4 -10 -10z"/> <path d="M293 63 c-6 -15 -7 -37 -2 -48 7 -19 8 -19 8 3 1 13 5 20 11 17 7 -4 8 3 4 22 -9 38 -10 38 -21 6z"/> <path d="M1878 83 c7 -3 16 -2 19 1 4 3 -2 6 -13 5 -11 0 -14 -3 -6 -6z"/> <path d="M243 40 c0 -27 2 -29 15 -16 8 8 12 22 9 30 -10 26 -24 18 -24 -14z"/> <path d="M331 50 c0 -8 4 -24 9 -35 9 -20 9 -20 9 0 0 11 -4 27 -9 35 -9 13 -10 13 -9 0z"/> <path d="M2567 33 c-12 -11 -8 -23 8 -23 8 0 15 7 15 15 0 16 -12 20 -23 8z"/> <path d="M1215 10 c3 -5 8 -10 11 -10 2 0 4 5 4 10 0 6 -5 10 -11 10 -5 0 -7 -4 -4 -10z"/> </g> </svg> 