 <svg  version="1.0" xmlns="http://www.w3.org/2000/svg"  width="300.000000pt" height="212.000000pt" viewBox="0 0 300.000000 212.000000"  preserveAspectRatio="xMidYMid meet">  <g transform="translate(0.000000,212.000000) scale(0.100000,-0.100000)" fill="#f4f0f0" stroke="none"> <path d="M2720 2105 c19 -7 59 -22 88 -34 29 -12 51 -17 47 -11 -3 5 -12 10 -18 10 -7 0 -34 12 -62 25 -27 14 -59 25 -70 24 -13 0 -8 -5 15 -14z"/> <path d="M1670 2086 c0 -3 14 -13 30 -21 18 -9 28 -21 24 -27 -4 -7 -3 -8 4 -4 8 5 10 -2 6 -24 -4 -19 -2 -30 5 -30 6 0 11 10 11 23 0 12 3 33 6 47 4 17 3 21 -4 12 -7 -11 -16 -9 -45 8 -21 12 -37 19 -37 16z"/> <path d="M872 2028 c3 -7 20 -55 38 -106 18 -51 35 -91 37 -89 2 3 -1 17 -7 32 -6 15 -8 37 -5 49 5 17 4 18 -5 6 -10 -12 -11 -11 -7 8 3 12 1 20 -3 17 -5 -3 -16 17 -25 45 -9 27 -19 50 -22 50 -3 0 -3 -6 -1 -12z"/> <path d="M2133 1989 c24 -14 21 -36 -10 -66 -23 -21 -24 -24 -6 -14 44 23 58 91 18 91 -18 -1 -19 -1 -2 -11z"/> <path d="M740 1943 c0 -15 42 -124 46 -120 4 4 -35 119 -42 126 -2 2 -4 -1 -4 -6z"/> <path d="M1377 1902 c-9 -10 -17 -25 -17 -33 1 -8 7 -2 15 13 l15 26 62 -14 c35 -8 101 -33 147 -55 80 -40 83 -42 77 -71 -3 -18 -2 -27 4 -23 24 15 10 55 -29 79 -47 30 -147 72 -193 81 -18 3 -40 8 -49 11 -9 2 -23 -4 -32 -14z"/> <path d="M1120 1873 c0 -7 -6 -16 -13 -19 -8 -3 -14 -12 -14 -20 0 -10 10 -5 31 14 17 16 38 32 46 35 8 2 0 5 -17 4 -21 0 -33 -5 -33 -14z"/> <path d="M319 1846 c9 -10 6 -17 -13 -30 -14 -9 -30 -16 -36 -16 -5 0 -10 -5 -10 -11 0 -11 1 -10 70 34 25 16 35 26 23 22 -14 -4 -23 -2 -23 4 0 6 -5 11 -11 11 -8 0 -8 -4 0 -14z"/> <path d="M2717 1774 c24 -25 64 -43 126 -58 49 -12 28 12 -30 34 -32 12 -63 26 -70 32 -7 6 -13 7 -13 2 0 -4 -5 -3 -12 4 -7 7 -15 12 -20 12 -4 0 5 -12 19 -26z"/> <path d="M1479 1751 c23 -18 23 -19 5 -24 -16 -4 -16 -5 4 -6 28 -1 79 -26 111 -55 l25 -21 -18 28 c-18 29 -18 29 6 22 40 -11 -4 13 -85 46 -53 21 -66 24 -48 10z"/> <path d="M2056 1744 c-9 -8 -16 -20 -16 -26 0 -6 9 0 20 13 19 23 21 23 34 7 7 -10 17 -18 21 -18 5 0 0 9 -10 20 -22 24 -29 25 -49 4z"/> <path d="M2455 1643 c-26 -37 -50 -74 -53 -83 -2 -8 14 12 38 44 58 82 73 106 67 106 -3 0 -27 -30 -52 -67z"/> <path d="M2545 1660 c3 -4 -5 -16 -16 -26 -30 -27 -142 -184 -136 -190 3 -3 13 8 23 25 19 32 34 40 34 19 0 -7 13 7 29 32 16 26 26 53 23 64 -3 13 -1 17 6 12 7 -4 12 -1 13 6 0 7 4 4 9 -7 9 -20 9 -20 10 0 0 11 7 29 15 39 19 25 19 33 0 33 -8 0 -12 -3 -10 -7z"/> <path d="M2726 1614 c-10 -31 -16 -58 -14 -60 2 -2 26 19 53 46 l48 49 -27 11 c-40 15 -41 15 -60 -46z m54 27 c0 -12 -29 -35 -36 -28 -11 10 5 37 21 37 8 0 15 -4 15 -9z"/> <path d="M528 1565 c-133 -67 -169 -90 -174 -109 -8 -33 97 -243 130 -257 19 -9 46 1 187 71 180 90 199 103 198 134 0 25 -88 198 -88 176 -1 -10 -68 -49 -181 -105 -162 -81 -201 -105 -169 -105 5 0 8 -4 4 -9 -3 -5 0 -13 6 -17 8 -5 10 0 6 17 -6 23 4 30 168 112 l175 87 35 -71 c20 -39 35 -81 33 -92 -2 -17 -40 -41 -176 -110 -118 -60 -179 -86 -193 -82 -23 8 -93 140 -85 162 3 8 1 11 -4 8 -16 -10 -46 63 -34 82 12 20 332 182 360 183 11 0 26 -6 34 -12 12 -11 12 -10 1 5 -7 9 -25 17 -40 16 -14 0 -101 -38 -193 -84z"/> <path d="M1499 1577 c17 -21 111 -101 111 -94 0 3 -28 29 -62 58 -35 30 -57 46 -49 36z"/> <path d="M2740 1483 l-55 -57 50 44 c69 61 78 70 68 70 -5 0 -33 -26 -63 -57z"/> <path d="M1898 1500 c-20 -11 -40 -25 -43 -31 -8 -12 39 11 70 35 27 21 18 19 -27 -4z"/> <path d="M59 1457 c17 -45 13 -73 -11 -84 -12 -5 -18 -12 -12 -15 5 -4 19 2 31 12 20 16 21 21 12 56 -6 22 -15 44 -21 49 -5 6 -5 -2 1 -18z"/> <path d="M2338 1377 c-116 -165 -140 -201 -131 -192 21 19 182 245 175 245 -4 0 -24 -24 -44 -53z"/> <path d="M2940 1368 c6 -18 10 -34 10 -35 0 -2 4 -3 9 -3 12 0 1 48 -15 61 -11 9 -11 5 -4 -23z"/> <path d="M2248 1348 c-40 -55 -72 -104 -56 -88 20 21 91 120 85 120 -3 0 -16 -15 -29 -32z"/> <path d="M2746 1282 c5 -4 21 -18 37 -31 15 -14 27 -19 27 -13 0 18 -38 52 -57 52 -9 0 -13 -3 -7 -8z"/> <path d="M1028 1154 c-2 -25 0 -51 4 -57 4 -7 8 14 8 46 0 68 -7 75 -12 11z"/> <path d="M2873 1098 c3 -9 1 -18 -5 -20 -16 -6 8 -45 32 -53 42 -13 90 49 61 78 -9 9 -11 8 -5 -6 3 -10 -1 -28 -10 -43 -13 -19 -22 -23 -39 -18 -29 9 -39 25 -25 42 8 9 8 16 -2 25 -10 10 -12 9 -7 -5z"/> <path d="M470 1046 c0 -6 41 -76 45 -76 8 0 -25 75 -34 78 -6 2 -11 1 -11 -2z"/> <path d="M1575 1010 c-5 -5 -29 -26 -52 -46 -24 -20 -43 -40 -43 -46 0 -5 14 7 30 26 37 41 87 60 138 52 25 -4 31 -3 17 3 -35 15 -80 21 -90 11z"/> <path d="M2028 1004 c-22 -11 -28 -22 -28 -49 0 -37 7 -44 55 -55 28 -6 34 -4 38 11 4 15 2 16 -13 7 -9 -6 -29 -8 -43 -4 -48 12 -32 86 18 86 26 0 45 -18 45 -44 0 -15 3 -17 12 -8 9 9 5 19 -17 42 -33 34 -31 34 -67 14z"/> <path d="M2438 1007 c23 -5 42 -14 42 -18 0 -5 5 -9 10 -9 6 0 10 6 10 14 0 8 -15 16 -37 20 -57 9 -74 5 -25 -7z"/> <path d="M315 868 c-114 -129 -147 -168 -142 -168 6 0 220 241 216 244 -2 2 -35 -33 -74 -76z"/> <path d="M1670 921 c0 -16 7 -34 15 -41 17 -14 45 -7 45 12 0 10 -3 9 -9 -1 -16 -25 -44 -4 -39 29 3 17 1 30 -4 30 -4 0 -8 -13 -8 -29z"/> <path d="M2484 938 c-5 -7 -2 -9 9 -5 9 3 17 3 19 -1 2 -4 27 -18 57 -30 37 -15 58 -19 70 -12 18 11 19 10 -30 14 -20 2 -52 12 -71 24 -41 25 -44 26 -54 10z"/> <path d="M1144 766 c10 -178 25 -204 25 -44 1 76 -3 129 -9 133 -6 4 -8 10 -5 15 3 5 0 12 -6 16 -9 5 -10 -24 -5 -120z"/> <path d="M2668 878 c-5 -13 3 -20 39 -32 26 -9 49 -16 52 -16 13 1 -45 29 -61 30 -9 0 -18 8 -20 18 -3 16 -4 16 -10 0z"/> <path d="M1932 864 c15 -8 31 -26 34 -39 3 -14 10 -25 15 -25 15 0 -19 58 -40 70 -11 5 -23 10 -28 10 -4 -1 4 -7 19 -16z"/> <path d="M2096 819 c-14 -11 -26 -25 -26 -32 0 -6 12 1 28 15 15 14 36 28 47 31 19 4 19 5 -1 6 -12 0 -33 -8 -48 -20z"/> <path d="M1661 776 c-22 -26 19 -69 49 -51 17 10 11 44 -9 55 -25 13 -26 13 -40 -4z"/> <path d="M0 777 c0 -2 24 -23 53 -47 29 -25 41 -32 27 -16 -25 28 -80 71 -80 63z"/> <path d="M213 618 c24 -17 27 -25 22 -52 -5 -23 -4 -27 4 -16 24 34 -1 91 -40 90 -8 0 -2 -10 14 -22z"/> <path d="M1530 633 c0 -9 116 -115 155 -142 11 -7 7 -1 -10 14 -16 15 -56 52 -87 82 -32 30 -58 51 -58 46z"/> <path d="M935 600 c-33 -4 -47 -7 -31 -8 25 -2 27 -4 15 -19 -13 -15 -12 -15 8 -5 33 18 89 14 133 -8 50 -26 52 -19 3 11 l-38 23 40 7 c37 6 36 6 -15 6 -30 0 -82 -3 -115 -7z"/> <path d="M1460 572 c0 -6 5 -14 10 -17 6 -4 7 -12 4 -18 -4 -7 -4 -9 1 -5 8 8 61 -28 118 -81 20 -19 37 -32 37 -29 0 3 -38 40 -85 83 -47 42 -85 72 -85 67z"/> <path d="M1940 556 c-6 -8 -33 -17 -58 -19 l-47 -3 47 -2 c41 -2 48 -5 56 -29 6 -16 11 -21 11 -13 0 8 -4 22 -9 30 -6 10 -4 20 7 32 9 10 14 18 11 18 -3 0 -11 -7 -18 -14z"/> <path d="M1120 529 c8 -5 33 -19 55 -31 31 -16 37 -17 26 -4 -12 14 -9 16 25 18 l39 1 -45 6 c-25 3 -48 3 -51 -1 -3 -5 -14 -1 -25 7 -10 8 -23 14 -29 15 -5 0 -3 -5 5 -11z"/> <path d="M1415 522 c-5 -4 -17 -16 -25 -26 -15 -19 -14 -19 18 -2 18 9 30 21 27 26 -7 12 -7 12 -20 2z"/> <path d="M2003 465 c0 -33 2 -45 4 -27 2 18 2 45 0 60 -2 15 -4 0 -4 -33z"/> <path d="M1049 453 c-13 -15 -12 -15 8 -3 55 35 110 -32 63 -75 -19 -18 -24 -18 -48 -5 -14 9 -29 26 -33 40 -7 24 -7 24 -8 3 -1 -28 32 -63 59 -63 27 0 60 35 60 63 0 49 -71 77 -101 40z"/> <path d="M2217 423 c-16 -15 -3 -26 76 -63 104 -49 195 -76 209 -62 17 17 1 29 -70 53 -37 12 -96 35 -131 50 -68 31 -74 33 -84 22z m175 -67 c108 -41 134 -62 56 -44 -63 14 -191 71 -196 87 -4 11 0 12 14 6 11 -4 67 -26 126 -49z"/> <path d="M1870 410 l-75 -6 78 -2 c46 -1 77 2 77 8 0 6 -1 9 -2 8 -2 -1 -37 -4 -78 -8z"/> <path d="M762 349 l-42 -61 32 7 c58 12 68 16 68 31 0 13 -2 13 -16 0 -19 -20 -44 -21 -44 -3 0 8 9 22 19 31 15 13 20 14 24 4 3 -7 6 2 6 20 1 17 0 32 -2 32 -2 0 -22 -27 -45 -61z"/> <path d="M1922 370 c-6 -10 -24 -20 -39 -23 l-28 -4 31 -2 c16 0 36 -7 44 -13 12 -11 12 -10 1 5 -11 14 -11 20 -1 32 7 9 11 17 9 20 -3 2 -10 -4 -17 -15z"/> <path d="M1438 343 c-27 -14 -48 -30 -48 -35 0 -4 18 3 40 18 21 14 63 30 92 34 l53 8 -45 1 c-31 0 -59 -7 -92 -26z"/> <path d="M1580 362 c0 -4 16 -14 35 -20 18 -7 45 -27 60 -43 14 -17 25 -27 25 -22 0 14 -62 68 -92 81 -16 6 -28 8 -28 4z"/> <path d="M2012 334 c-12 -15 -21 -28 -19 -31 2 -2 10 3 17 12 7 8 19 15 26 15 8 0 14 7 14 15 0 22 -12 18 -38 -11z"/> <path d="M2631 323 c-23 -63 -23 -70 -2 -33 15 25 20 30 21 16 0 -11 3 -17 6 -14 3 3 1 20 -3 38 l-8 32 -14 -39z"/> <path d="M1160 320 c-14 -11 -34 -20 -45 -20 -11 0 -26 -4 -32 -8 -7 -4 10 -7 37 -6 28 2 60 10 72 20 18 12 19 15 4 10 -13 -5 -17 -2 -12 9 7 19 6 19 -24 -5z"/> <path d="M109 305 c0 -11 0 -32 1 -47 1 -18 -4 -28 -17 -31 -15 -4 -16 -5 -1 -6 9 0 20 4 23 9 5 8 12 7 22 -2 14 -11 15 -10 8 11 -4 14 -14 38 -21 55 -10 25 -14 27 -15 11z"/> <path d="M1100 271 c0 -5 -14 -14 -32 -22 -17 -7 -27 -14 -21 -16 5 -2 30 8 54 22 35 19 39 25 22 25 -13 0 -23 -4 -23 -9z"/> <path d="M2801 225 c9 -11 18 -27 21 -35 6 -19 -23 -48 -43 -42 -11 3 -11 2 1 -7 11 -8 21 -4 42 16 16 15 28 32 28 37 0 6 -5 4 -10 -4 -8 -13 -10 -13 -10 1 0 9 -10 24 -22 35 -23 19 -23 19 -7 -1z"/> <path d="M630 211 c0 -5 -10 -7 -22 -4 -19 4 -20 3 -8 -6 8 -6 26 -11 40 -11 18 0 21 3 11 9 -11 7 -10 10 5 14 16 4 16 5 -3 6 -13 0 -23 -3 -23 -8z"/> <path d="M356 175 c3 -8 12 -15 20 -15 8 0 14 -8 14 -17 0 -15 2 -14 15 3 18 24 19 40 2 26 -10 -9 -19 -7 -35 4 -20 13 -21 13 -16 -1z"/> <path d="M944 175 c-4 -10 -12 -12 -22 -7 -10 5 -33 5 -52 2 -31 -5 -27 -7 33 -14 38 -4 71 -5 74 -2 4 3 -2 6 -11 6 -12 0 -16 5 -12 15 3 8 3 15 0 15 -2 0 -7 -7 -10 -15z"/> <path d="M1334 123 c13 -26 42 -61 63 -77 l38 -29 -27 29 c-15 16 -34 46 -42 66 -9 21 -25 42 -36 48 -20 11 -20 9 4 -37z"/> <path d="M2950 140 c-10 -6 -11 -10 -2 -10 24 0 11 -29 -15 -33 l-28 -4 28 -2 c28 -1 42 15 35 43 -2 11 -7 13 -18 6z"/> <path d="M650 104 c47 -7 99 -12 115 -12 17 0 -8 6 -55 14 -47 7 -98 12 -115 12 -16 0 8 -6 55 -14z"/> <path d="M1285 78 c-41 -21 -55 -35 -55 -53 1 -5 5 -2 11 8 5 9 28 26 50 37 21 11 39 23 39 25 0 7 0 7 -45 -17z"/> <path d="M840 79 c25 -4 59 -7 75 -7 22 0 18 3 -15 9 -25 4 -58 7 -75 7 -22 0 -18 -3 15 -9z"/> <path d="M980 60 c21 -7 18 -8 -20 -11 -34 -1 -38 -3 -16 -6 15 -3 40 -2 54 2 21 5 23 8 11 16 -7 5 -23 8 -34 8 -16 -1 -16 -2 5 -9z"/> <path d="M763 53 c20 -2 35 -8 32 -14 -4 -5 16 -8 47 -7 43 1 46 2 16 5 -21 2 -38 8 -38 14 0 5 -21 8 -47 7 -44 -1 -45 -2 -10 -5z"/> </g> </svg> 